<?xml version="1.0" encoding="UTF-8" standalone="no"?>
<!-- Created with Inkscape (http://www.inkscape.org/) -->

<svg
   xmlns:dc="http://purl.org/dc/elements/1.1/"
   xmlns:cc="http://creativecommons.org/ns#"
   xmlns:rdf="http://www.w3.org/1999/02/22-rdf-syntax-ns#"
   xmlns:svg="http://www.w3.org/2000/svg"
   xmlns="http://www.w3.org/2000/svg"
   xmlns:sodipodi="http://sodipodi.sourceforge.net/DTD/sodipodi-0.dtd"
   xmlns:inkscape="http://www.inkscape.org/namespaces/inkscape"
   width="1052.9999"
   height="371.16406"
   id="svg3153"
   version="1.1"
   inkscape:version="0.48.3.1 r9886"
   sodipodi:docname="parallel-clustertypes.svg">
  <sodipodi:namedview
     id="base"
     pagecolor="#ffffff"
     bordercolor="#666666"
     borderopacity="1.0"
     inkscape:pageopacity="0.0"
     inkscape:pageshadow="2"
     inkscape:zoom="0.7"
     inkscape:cx="498.75505"
     inkscape:cy="238.79712"
     inkscape:document-units="px"
     inkscape:current-layer="layer1"
     showgrid="false"
     inkscape:window-width="838"
     inkscape:window-height="1017"
     inkscape:window-x="0"
     inkscape:window-y="14"
     inkscape:window-maximized="0"
     fit-margin-top="0"
     fit-margin-left="0"
     fit-margin-right="0"
     fit-margin-bottom="0">
    <inkscape:grid
       type="xygrid"
       id="grid4540"
       empspacing="5"
       visible="true"
       enabled="true"
       snapvisiblegridlinesonly="true"
       originx="-4.2142858px"
       originy="-416.35713px" />
  </sodipodi:namedview>
  <defs
     id="defs3155">
    <inkscape:path-effect
       tgtlength_rdm="0.3;1"
       tgtlength="100"
       tgtscale="10"
       tgt_places_rdmness="1;1"
       nbtangents="0"
       tremble_frequency="1"
       tremble_size="3;1"
       parallel_offset="1;1"
       ends_tolerance="0.1;1"
       strokeoverlap_rdm="0.3;1"
       strokeoverlap="0.3"
       strokelength_rdm="0.3;1"
       strokelength="100"
       nbiter_approxstrokes="3"
       is_visible="true"
       id="path-effect3377"
       effect="sketch" />
    <inkscape:path-effect
       tgtlength_rdm="0.3;1"
       tgtlength="100"
       tgtscale="10"
       tgt_places_rdmness="1;1"
       nbtangents="0"
       tremble_frequency="1"
       tremble_size="3;1"
       parallel_offset="1;1"
       ends_tolerance="0.1;1"
       strokeoverlap_rdm="0.3;1"
       strokeoverlap="0.3"
       strokelength_rdm="0.3;1"
       strokelength="100"
       nbiter_approxstrokes="3"
       is_visible="true"
       id="path-effect3377-7"
       effect="sketch" />
    <inkscape:path-effect
       tgtlength_rdm="0.3;1"
       tgtlength="100"
       tgtscale="10"
       tgt_places_rdmness="1;1"
       nbtangents="0"
       tremble_frequency="1"
       tremble_size="3;1"
       parallel_offset="1;1"
       ends_tolerance="0.1;1"
       strokeoverlap_rdm="0.3;1"
       strokeoverlap="0.3"
       strokelength_rdm="0.3;1"
       strokelength="100"
       nbiter_approxstrokes="3"
       is_visible="true"
       id="path-effect3377-7-0"
       effect="sketch" />
    <inkscape:path-effect
       tgtlength_rdm="0.3;1"
       tgtlength="100"
       tgtscale="10"
       tgt_places_rdmness="1;1"
       nbtangents="0"
       tremble_frequency="1"
       tremble_size="3;1"
       parallel_offset="1;1"
       ends_tolerance="0.1;1"
       strokeoverlap_rdm="0.3;1"
       strokeoverlap="0.3"
       strokelength_rdm="0.3;1"
       strokelength="100"
       nbiter_approxstrokes="3"
       is_visible="true"
       id="path-effect3377-7-7"
       effect="sketch" />
    <inkscape:path-effect
       effect="sketch"
       id="path-effect3785"
       is_visible="true"
       nbiter_approxstrokes="3"
       strokelength="100"
       strokelength_rdm="0.3;1"
       strokeoverlap="0.3"
       strokeoverlap_rdm="0.3;1"
       ends_tolerance="0.6;1"
       parallel_offset="1;1"
       tremble_size="3;1"
       tremble_frequency="1"
       nbtangents="0"
       tgt_places_rdmness="1;1"
       tgtscale="10"
       tgtlength="100"
       tgtlength_rdm="0.3;1" />
    <inkscape:path-effect
       effect="sketch"
       id="path-effect3785-3"
       is_visible="true"
       nbiter_approxstrokes="3"
       strokelength="100"
       strokelength_rdm="0.3;1"
       strokeoverlap="0.3"
       strokeoverlap_rdm="0.3;1"
       ends_tolerance="0.6;1"
       parallel_offset="1;1"
       tremble_size="3;1"
       tremble_frequency="1"
       nbtangents="0"
       tgt_places_rdmness="1;1"
       tgtscale="10"
       tgtlength="100"
       tgtlength_rdm="0.3;1" />
    <inkscape:path-effect
       effect="sketch"
       id="path-effect3785-3-8"
       is_visible="true"
       nbiter_approxstrokes="3"
       strokelength="100"
       strokelength_rdm="0.3;1"
       strokeoverlap="0.3"
       strokeoverlap_rdm="0.3;1"
       ends_tolerance="0.6;1"
       parallel_offset="1;1"
       tremble_size="3;1"
       tremble_frequency="1"
       nbtangents="0"
       tgt_places_rdmness="1;1"
       tgtscale="10"
       tgtlength="100"
       tgtlength_rdm="0.3;1" />
    <inkscape:path-effect
       effect="sketch"
       id="path-effect3785-3-7"
       is_visible="true"
       nbiter_approxstrokes="3"
       strokelength="100"
       strokelength_rdm="0.3;1"
       strokeoverlap="0.3"
       strokeoverlap_rdm="0.3;1"
       ends_tolerance="0.6;1"
       parallel_offset="1;1"
       tremble_size="3;1"
       tremble_frequency="1"
       nbtangents="0"
       tgt_places_rdmness="1;1"
       tgtscale="10"
       tgtlength="100"
       tgtlength_rdm="0.3;1" />
    <inkscape:path-effect
       effect="sketch"
       id="path-effect3785-3-8-4"
       is_visible="true"
       nbiter_approxstrokes="3"
       strokelength="100"
       strokelength_rdm="0.3;1"
       strokeoverlap="0.3"
       strokeoverlap_rdm="0.3;1"
       ends_tolerance="0.6;1"
       parallel_offset="1;1"
       tremble_size="3;1"
       tremble_frequency="1"
       nbtangents="0"
       tgt_places_rdmness="1;1"
       tgtscale="10"
       tgtlength="100"
       tgtlength_rdm="0.3;1" />
    <inkscape:path-effect
       effect="sketch"
       id="path-effect3785-3-8-6"
       is_visible="true"
       nbiter_approxstrokes="3"
       strokelength="100"
       strokelength_rdm="0.3;1"
       strokeoverlap="0.3"
       strokeoverlap_rdm="0.3;1"
       ends_tolerance="0.6;1"
       parallel_offset="1;1"
       tremble_size="3;1"
       tremble_frequency="1"
       nbtangents="0"
       tgt_places_rdmness="1;1"
       tgtscale="10"
       tgtlength="100"
       tgtlength_rdm="0.3;1" />
    <inkscape:path-effect
       effect="sketch"
       id="path-effect3785-3-8-3"
       is_visible="true"
       nbiter_approxstrokes="3"
       strokelength="100"
       strokelength_rdm="0.3;1"
       strokeoverlap="0.3"
       strokeoverlap_rdm="0.3;1"
       ends_tolerance="0.6;1"
       parallel_offset="1;1"
       tremble_size="3;1"
       tremble_frequency="1"
       nbtangents="0"
       tgt_places_rdmness="1;1"
       tgtscale="10"
       tgtlength="100"
       tgtlength_rdm="0.3;1" />
    <inkscape:path-effect
       effect="sketch"
       id="path-effect3785-3-8-1"
       is_visible="true"
       nbiter_approxstrokes="3"
       strokelength="100"
       strokelength_rdm="0.3;1"
       strokeoverlap="0.3"
       strokeoverlap_rdm="0.3;1"
       ends_tolerance="0.6;1"
       parallel_offset="1;1"
       tremble_size="3;1"
       tremble_frequency="1"
       nbtangents="0"
       tgt_places_rdmness="1;1"
       tgtscale="10"
       tgtlength="100"
       tgtlength_rdm="0.3;1" />
  </defs>
  <metadata
     id="metadata3158">
    <rdf:RDF>
      <cc:Work
         rdf:about="">
        <dc:format>image/svg+xml</dc:format>
        <dc:type
           rdf:resource="http://purl.org/dc/dcmitype/StillImage" />
        <dc:title />
      </cc:Work>
    </rdf:RDF>
  </metadata>
  <g
     transform="translate(-4.2142858,-264.84097)"
     id="layer1"
     inkscape:groupmode="layer"
     inkscape:label="Layer 1">
    <text
       inkscape:transform-center-y="14.285714"
       inkscape:transform-center-x="51.428571"
       sodipodi:linespacing="125%"
       id="text3401"
       y="330.93362"
       x="237.14285"
       style="font-size:20px;font-style:italic;font-variant:normal;font-weight:normal;font-stretch:normal;text-align:start;line-height:125%;letter-spacing:0px;word-spacing:0px;writing-mode:lr-tb;text-anchor:start;fill:#000000;fill-opacity:1;stroke:none;font-family:Verdana;-inkscape-font-specification:Verdana Italic"
       xml:space="preserve"><tspan
         id="tspan3407"
         y="330.93362"
         x="237.14285"
         sodipodi:role="line">IPython parallel</tspan><tspan
         id="tspan3413"
         y="355.93362"
         x="237.14285"
         sodipodi:role="line">ZeroMQ messaging</tspan><tspan
         id="tspan3415"
         y="380.93362"
         x="237.14285"
         sodipodi:role="line">Cluster integration</tspan></text>
    <text
       sodipodi:linespacing="125%"
       id="text3490"
       y="329.50504"
       x="838.57141"
       style="font-size:20px;font-style:italic;font-variant:normal;font-weight:bold;font-stretch:normal;text-align:start;line-height:125%;letter-spacing:0px;word-spacing:0px;writing-mode:lr-tb;text-anchor:start;fill:#000000;fill-opacity:1;stroke:none;font-family:Verdana;-inkscape-font-specification:Verdana Bold Italic"
       xml:space="preserve"><tspan
         y="329.50504"
         x="838.57141"
         id="tspan3492"
         sodipodi:role="line">n = total cores</tspan><tspan
         id="tspan3494"
         y="354.50504"
         x="838.57141"
         sodipodi:role="line">s = samples</tspan><tspan
         id="tspan3496"
         y="379.50504"
         x="838.57141"
         sodipodi:role="line">m = multiple cores</tspan></text>
    <path
       transform="matrix(1.3194494,0,0,1.5438854,-568.20671,91.621098)"
       inkscape:path-effect="#path-effect3377-7"
       d="m 611.42858,205.21933 a 85.714287,41.42857 0 1 1 -171.42857,0 85.714287,41.42857 0 1 1 171.42857,0 z"
       sodipodi:ry="41.42857"
       sodipodi:rx="85.714287"
       sodipodi:cy="205.21933"
       sodipodi:cx="525.71429"
       id="path3375-2"
       style="fill:none;stroke:#050000;stroke-width:2.12665915;stroke-linecap:butt;stroke-linejoin:miter;stroke-miterlimit:4;stroke-opacity:1;stroke-dasharray:none"
       sodipodi:type="arc" />
    <text
       xml:space="preserve"
       style="font-size:20px;font-style:normal;font-variant:normal;font-weight:normal;font-stretch:normal;text-align:start;line-height:125%;letter-spacing:0px;word-spacing:0px;writing-mode:lr-tb;text-anchor:start;fill:#000000;fill-opacity:1;stroke:none;font-family:Verdana;-inkscape-font-specification:Verdana"
       x="43.170803"
       y="383.07812"
       id="text4456"
       sodipodi:linespacing="125%"><tspan
         sodipodi:role="line"
         id="tspan4458"
         x="43.170803"
         y="383.07812">Multicore cluster</tspan></text>
    <g
       id="g4524"
       transform="translate(18.226196,43.426386)">
      <path
         sodipodi:type="arc"
         style="fill:none;stroke:#050000;stroke-width:2.25805163;stroke-linecap:butt;stroke-linejoin:miter;stroke-miterlimit:4;stroke-opacity:1;stroke-dasharray:none"
         id="path3375-2-1"
         sodipodi:cx="525.71429"
         sodipodi:cy="205.21933"
         sodipodi:rx="85.714287"
         sodipodi:ry="41.42857"
         d="m 611.62584,214.60408 c -0.99625,3.31832 -2.86155,6.51254 -5.489,9.53014 -4.24813,4.87896 -10.49225,9.29901 -18.3017,13.04988 -12.02225,5.77428 -27.78435,9.98475 -45.42901,11.64403 m 17.69857,-5.91675 c -10.85037,2.21995 -22.7273,3.49569 -35.08451,3.556 -12.73409,0.0622 -24.6725,-1.17944 -35.32514,-3.50642 m 12.69104,3.57364 c -15.68104,-2.00766 -29.31103,-6.02751 -40.00334,-11.47587 -7.68472,-3.91581 -13.84742,-8.56491 -18.0806,-13.71083 -2.39859,-2.91577 -4.17643,-5.99082 -5.25083,-9.18729 m 11.8899,14.03296 c -1.59448,-1.3591 -3.03298,-2.77544 -4.30052,-4.24129 -4.19075,-4.84641 -6.50922,-10.23189 -6.44579,-15.89797 0.0634,-5.66607 2.50191,-11.07663 6.8737,-15.99335 4.37179,-4.91671 10.67181,-9.34317 18.47432,-13.02915 8.20523,-3.87623 18.06984,-6.93513 29.17562,-8.83066 m -28.46468,5.26736 c 7.46312,-3.47127 16.32414,-6.26806 26.25675,-8.22402 9.9326,-1.95596 20.93731,-3.07127 32.6305,-3.21277 9.39034,-0.11364 18.55109,0.40592 27.22737,1.44991 m -23.10167,1.91924 c 21.60993,0.87741 42.08042,4.5926 57.40499,10.69322 6.39843,2.54718 11.90464,5.50684 16.26141,8.81268 m -18.74202,-9.52452 c 7.27571,3.67593 13.29782,7.99764 17.55457,12.77453 4.39496,4.93199 6.90381,10.35039 7.0547,16.03101 0.15089,5.68063 -2.06238,11.08413 -6.13226,15.97431 -3.1406,3.7736 -7.38546,7.24137 -12.50994,10.29505 m 20.24825,-17.46837 c -1.09382,2.4119 -2.63778,4.75188 -4.59165,7.00214 -4.31211,4.96624 -10.62141,9.49552 -18.51541,13.41652 -10.42329,5.17731 -23.61895,9.30077 -38.56153,11.93634 m 16.37139,-1.13943 c -11.20156,2.83711 -23.98765,4.30265 -37.64652,4.0412 -20.19241,-0.38651 -39.01032,-4.45721 -53.8844,-10.74365 m 24.48609,4.79839 c -12.36619,-1.73619 -23.24476,-4.93466 -32.06896,-9.10995 -7.62881,-3.60969 -13.72312,-7.95366 -17.87603,-12.7842 -4.1529,-4.83053 -6.36712,-10.15437 -6.16242,-15.71681 0.19197,-5.21693 2.50269,-10.17775 6.59164,-14.63847 m -5.65038,24.82823 c -0.95831,-2.5557 -1.43758,-5.20281 -1.38147,-7.91537 0.11769,-5.68989 2.58598,-11.12689 6.95705,-16.08961 4.37106,-4.96272 10.63677,-9.45389 18.33662,-13.25897 8.83048,-4.3638 19.54086,-7.8273 31.5468,-10.03408 m -22.59624,2.02473 c 14.19512,-4.34244 30.93661,-7.09217 48.74711,-7.47484 14.49705,-0.31148 28.04848,1.00589 39.98387,3.69639 m -25.29526,-3.21367 c 17.43602,1.70451 32.85508,6.26926 44.87681,12.66225 7.89506,4.19848 14.31566,9.17695 18.80853,14.64795 3.75779,4.57589 6.16357,9.49214 6.96372,14.65456 m -8.73491,-21.35714 c 1.50175,1.39275 2.85986,2.82749 4.06238,4.30004 4.20062,5.14389 6.50224,10.74699 6.40504,16.6366 -0.0972,5.88962 -2.58509,11.51133 -7.03833,16.70746 -4.45324,5.19612 -10.86848,9.96332 -18.83669,14.16896 -2.71074,1.43073 -5.60155,2.79691 -8.6576,4.09484 m 32.77012,-25.03735 c -1.13193,2.6846 -2.82785,5.27775 -5.03087,7.75093 -4.35141,4.88503 -10.68143,9.3036 -18.56581,13.04414 -12.26503,5.81883 -28.30057,10.01538 -46.45516,11.61451 m 18.6713,-3.22635 c -10.51291,2.34978 -21.94702,3.69019 -33.80033,3.83987 -21.16572,0.26726 -40.05177,-3.2462 -54.35667,-9.0658 m 25.0863,7.75689 c -10.62585,-1.96596 -20.25685,-5.19453 -28.31396,-9.29672 -7.74408,-3.94281 -14.03448,-8.68975 -18.38678,-13.94042 -4.3523,-5.25068 -6.76755,-10.99926 -6.78195,-17.05907 -0.0144,-6.05981 2.37145,-11.87201 6.70554,-17.30117 1.82227,-2.28268 3.98918,-4.49711 6.46834,-6.63027 m -14.49132,24.28025 c -0.047,-0.56137 -0.0701,-1.12565 -0.0689,-1.69258 0.0121,-5.63746 2.42826,-11.00341 6.79774,-15.8447 4.36949,-4.84128 10.69263,-9.1596 18.52548,-12.68987 14.18807,-6.39456 33.32916,-10.22179 54.81079,-9.66622 m -32.21461,0.38251 c 10.77443,-2.28123 22.83235,-3.61951 35.68859,-3.76445 17.39576,-0.19613 33.89967,1.82662 48.01342,5.55639 m -23.5966,-2.35957 c 13.33457,1.86288 25.26026,5.28434 35.00424,9.78055 7.96973,3.6775 14.47442,8.07656 19.04816,12.96477 4.57373,4.88821 7.20814,10.26904 7.48849,15.90369 0.2195,4.41159 -1.01483,8.65041 -3.4341,12.59204"
         inkscape:path-effect="#path-effect3377-7-7"
         transform="matrix(1.2376953,0,0,1.4261359,73.582953,78.205055)" />
      <g
         transform="translate(2.8571429,-4.2857143)"
         id="g4468">
        <g
           id="g4222"
           transform="matrix(0.4569128,0,0,0.53493729,524.23966,206.92868)">
          <g
             word-spacing="normal"
             letter-spacing="normal"
             font-size-adjust="none"
             font-stretch="normal"
             font-weight="normal"
             font-variant="normal"
             font-style="normal"
             stroke-miterlimit="10.433"
             xml:space="preserve"
             transform="matrix(1.0629921,0,0,-1.0629921,-186.02362,789.27165)"
             id="content"
             style="font-style:normal;font-variant:normal;font-weight:normal;font-stretch:normal;letter-spacing:normal;word-spacing:normal;text-anchor:start;fill:none;stroke:#000000;stroke-width:2.02270222;stroke-linecap:butt;stroke-linejoin:miter;stroke-miterlimit:10.43299961;stroke-opacity:1;stroke-dasharray:none;stroke-dashoffset:0"><path
               id="path4225"
               d="m 470.16,438.09 0,0.05 0,0.06 0,0.05 0,0.05 0,0.05 0,0.05 0,0.04 0,0.05 0,0.04 0,0.04 -0.01,0.04 0,0.04 0,0.04 0,0.03 0,0.04 -0.01,0.03 -0.01,0.07 0,0.06 -0.02,0.05 -0.01,0.05 -0.02,0.05 -0.02,0.04 -0.02,0.04 -0.02,0.03 -0.03,0.03 -0.03,0.03 -0.04,0.03 -0.04,0.02 -0.04,0.02 -0.03,0.01 -0.02,0.01 -0.03,0 -0.02,0.01 -0.03,0.01 -0.03,0 -0.03,0.01 -0.03,0 -0.04,0.01 -0.03,0 -0.04,0 -0.03,0.01 -0.04,0 -0.04,0 -0.05,0 -0.04,0 -0.04,0 -0.05,0.01 -0.05,0 -0.05,0 -0.05,0 -0.05,0 c -3.09,-3.19 -7.47,-3.19 -9.06,-3.19 v -1.55 c 1,0 3.93,0 6.51,1.3 v -25.81 c 0,-1.8 -0.14,-2.39 -4.62,-2.39 h -1.6 v -1.55 c 1.75,0.16 6.08,0.16 8.07,0.16 2,0 6.32,0 8.07,-0.16 v 1.55 h -1.59 c -4.48,0 -4.64,0.54 -4.64,2.39 z"
               inkscape:connector-curvature="0"
               style="fill:#000000;stroke-width:0" /><path
               id="path4227"
               d="m 510.89,420.04 -9.95,9.92 c -0.61,0.6 -0.71,0.71 -1.11,0.71 -0.49,0 -0.99,-0.46 -0.99,-1 0,-0.36 0.1,-0.46 0.64,-1 l 9.97,-10.02 -9.97,-10.01 c -0.54,-0.55 -0.64,-0.64 -0.64,-1 0,-0.55 0.5,-0.99 0.99,-0.99 0.4,0 0.5,0.1 1.11,0.69 l 9.9,9.92 10.32,-10.31 c 0.11,-0.05 0.45,-0.3 0.75,-0.3 0.59,0 1,0.44 1,0.99 0,0.11 0,0.31 -0.16,0.56 -0.05,0.09 -7.97,7.92 -10.45,10.45 l 9.11,9.13 c 0.25,0.29 1,0.93 1.25,1.23 0.04,0.11 0.25,0.3 0.25,0.66 0,0.54 -0.41,1 -1,1 -0.39,0 -0.6,-0.21 -1.14,-0.75 z"
               inkscape:connector-curvature="0"
               style="fill:#000000;stroke-width:0" /><path
               id="path4229"
               d="m 560.8,424.84 -0.13,-0.01 -0.13,-0.01 -0.12,-0.02 -0.13,-0.03 -0.12,-0.03 -0.11,-0.04 -0.12,-0.04 -0.11,-0.04 -0.1,-0.05 -0.11,-0.06 -0.1,-0.06 -0.09,-0.06 -0.1,-0.07 -0.09,-0.07 -0.08,-0.07 -0.08,-0.08 -0.08,-0.08 -0.07,-0.08 -0.07,-0.09 -0.06,-0.08 -0.06,-0.09 -0.06,-0.1 -0.05,-0.09 -0.04,-0.1 -0.04,-0.09 -0.04,-0.1 -0.03,-0.1 -0.02,-0.1 -0.02,-0.1 -0.02,-0.11 -0.01,-0.1 0,-0.1 c 0,-0.7 0.44,-1.44 1.55,-1.44 1.09,0 2.28,0.85 2.28,2.78 0,2.25 -2.14,4.28 -5.92,4.28 -6.58,0 -8.42,-5.07 -8.42,-7.26 0,-3.89 3.68,-4.64 5.12,-4.94 2.59,-0.5 5.19,-1.05 5.19,-3.78 0,-1.3 -1.14,-5.48 -7.13,-5.48 -0.7,0 -4.53,0 -5.68,2.64 1.9,-0.25 3.13,1.25 3.13,2.64 0,1.14 -0.79,1.75 -1.84,1.75 -1.29,0 -2.78,-1.05 -2.78,-3.3 0,-2.84 2.84,-4.83 7.12,-4.83 8.07,0 10.02,6.03 10.02,8.27 0,1.79 -0.95,3.04 -1.55,3.64 -1.34,1.39 -2.79,1.64 -4.98,2.09 -1.8,0.39 -3.78,0.75 -3.78,2.99 0,1.45 1.19,4.48 5.58,4.48 1.23,0 3.73,-0.34 4.48,-2.28 z"
               inkscape:connector-curvature="0"
               style="fill:#000000;stroke-width:0" /><path
               id="path4231"
               d="m 587.1,417.06 0,0.38 0.01,0.36 0.02,0.36 0.02,0.35 0.02,0.34 0.04,0.34 0.03,0.32 0.04,0.32 0.05,0.31 0.05,0.3 0.06,0.29 0.06,0.29 0.13,0.55 0.15,0.51 0.17,0.49 0.18,0.46 0.2,0.43 0.21,0.4 0.22,0.38 0.23,0.35 0.24,0.32 0.25,0.3 0.26,0.28 0.26,0.26 0.27,0.23 0.27,0.21 0.28,0.19 0.28,0.16 0.29,0.15 0.28,0.13 0.28,0.12 0.28,0.09 0.28,0.08 0.28,0.06 0.27,0.05 0.27,0.03 0.25,0.02 0.26,0.01 c 0.43,0 3.57,-0.05 5.32,-1.85 -2.04,-0.15 -2.34,-1.64 -2.34,-2.29 0,-1.3 0.89,-2.3 2.3,-2.3 1.28,0 2.28,0.86 2.28,2.34 0,3.39 -3.78,5.33 -7.63,5.33 -6.22,0 -10.81,-5.37 -10.81,-11.55 0,-6.37 4.94,-11.31 10.72,-11.31 6.67,0 8.27,5.99 8.27,6.47 0,0.5 -0.5,0.5 -0.65,0.5 -0.45,0 -0.54,-0.19 -0.65,-0.5 -1.44,-4.62 -4.67,-5.22 -6.52,-5.22 -2.64,0 -7.03,2.14 -7.03,10.16 z"
               inkscape:connector-curvature="0"
               style="fill:#000000;stroke-width:0" /><path
               id="path4233"
               d="m 626.82,416.86 -0.01,0.59 -0.05,0.59 -0.07,0.58 -0.1,0.57 -0.12,0.56 -0.15,0.55 -0.17,0.54 -0.2,0.53 -0.23,0.51 -0.24,0.5 -0.27,0.49 -0.29,0.47 -0.3,0.46 -0.33,0.44 -0.35,0.43 -0.37,0.4 -0.38,0.39 -0.4,0.37 -0.42,0.35 -0.43,0.32 -0.45,0.31 -0.46,0.28 -0.47,0.26 -0.49,0.24 -0.5,0.21 -0.51,0.18 -0.52,0.16 -0.53,0.13 -0.54,0.11 -0.55,0.07 -0.55,0.05 -0.57,0.01 -0.04,-1.09 c 2.19,0 4.33,-1.1 5.62,-3.24 1.3,-2.14 1.3,-5.03 1.3,-6.92 0,-1.8 0,-4.48 -1.09,-6.67 -1.1,-2.25 -3.29,-3.69 -5.79,-3.69 h 0 c -2.14,0 -4.32,1.05 -5.67,3.33 -1.25,2.2 -1.25,5.23 -1.25,7.03 0,1.94 0,4.63 1.19,6.83 1.36,2.28 3.69,3.33 5.69,3.33 l 0.04,1.09 c -6.21,0 -11.06,-5.42 -11.06,-11.65 0,-6.43 5.19,-11.21 11.02,-11.21 6.03,0 11.06,4.88 11.06,11.21 z"
               inkscape:connector-curvature="0"
               style="fill:#000000;stroke-width:0" /><path
               id="path4235"
               d="m 636.62,422.75 v 5.46 l -6.92,-0.54 v -1.55 c 3.48,0 3.89,-0.34 3.89,-2.78 v -13.36 c 0,-2.23 -0.55,-2.23 -3.89,-2.23 v -1.55 c 1.95,0.05 4.28,0.16 5.69,0.16 1.98,0 4.33,0 6.33,-0.16 v 1.55 h -1.05 c -3.69,0 -3.8,0.54 -3.8,2.34 v 7.67 c 0,4.92 2.1,9.36 5.89,9.36 0.34,0 0.44,0 0.55,-0.05 -0.16,-0.04 -1.16,-0.64 -1.16,-1.93 0,-1.41 1.05,-2.14 2.16,-2.14 0.89,0 2.14,0.59 2.14,2.18 0,1.6 -1.55,3.03 -3.69,3.03 -3.64,0 -5.44,-3.32 -6.14,-5.46 z"
               inkscape:connector-curvature="0"
               style="fill:#000000;stroke-width:0" /><path
               id="path4237"
               d="m 653.4,417.71 0.05,1.05 c 0.29,7.42 4.48,8.66 6.18,8.66 5.13,0 5.63,-6.72 5.63,-8.66 h -11.81 l -0.05,-1.05 h 13.9 c 1.1,0 1.24,0 1.24,1.05 0,4.92 -2.69,9.75 -8.91,9.75 -5.78,0 -10.37,-5.12 -10.37,-11.36 0,-6.67 5.23,-11.5 10.97,-11.5 6.07,0 8.31,5.53 8.31,6.47 0,0.5 -0.39,0.61 -0.64,0.61 -0.45,0 -0.55,-0.3 -0.66,-0.7 -1.73,-5.13 -6.22,-5.13 -6.72,-5.13 -2.5,0 -4.48,1.49 -5.62,3.33 -1.5,2.39 -1.5,5.69 -1.5,7.48 z"
               inkscape:connector-curvature="0"
               style="fill:#000000;stroke-width:0" /><path
               id="path4239"
               d="m 680.3,415.87 0.12,-0.02 0.12,-0.02 0.15,-0.03 0.15,-0.04 0.17,-0.04 0.18,-0.04 0.19,-0.05 0.2,-0.06 0.2,-0.06 0.21,-0.07 0.22,-0.08 0.22,-0.08 0.22,-0.1 0.22,-0.1 0.22,-0.11 0.22,-0.12 0.21,-0.14 0.22,-0.14 0.2,-0.15 0.2,-0.16 0.19,-0.18 0.18,-0.19 0.17,-0.2 0.16,-0.21 0.14,-0.22 0.06,-0.12 0.07,-0.12 0.06,-0.13 0.05,-0.12 0.05,-0.14 0.04,-0.13 0.04,-0.14 0.04,-0.14 0.03,-0.15 0.03,-0.15 0.02,-0.16 0.01,-0.15 0.01,-0.17 0,-0.16 c 0,-2.53 -1.75,-4.53 -5.62,-4.53 -4.19,0 -5.99,2.84 -6.94,7.07 -0.14,0.64 -0.19,0.85 -0.69,0.85 -0.65,0 -0.65,-0.35 -0.65,-1.25 v -6.58 c 0,-0.84 0,-1.19 0.54,-1.19 0.25,0 0.3,0.05 1.25,1 0.1,0.1 0.1,0.19 1,1.14 2.19,-2.09 4.44,-2.14 5.49,-2.14 5.72,0 8.01,3.35 8.01,6.92 0,2.64 -1.5,4.14 -2.09,4.74 -1.64,1.59 -3.59,2 -5.69,2.39 -2.78,0.55 -6.12,1.2 -6.12,4.09 0,1.74 1.29,3.78 5.57,3.78 5.49,0 5.74,-4.48 5.83,-6.03 0.07,-0.45 0.5,-0.45 0.61,-0.45 0.64,0 0.64,0.25 0.64,1.2 v 5.03 c 0,0.85 0,1.19 -0.54,1.19 -0.25,0 -0.35,0 -1,-0.59 -0.14,-0.21 -0.64,-0.64 -0.85,-0.8 -1.89,1.39 -3.94,1.39 -4.69,1.39 -6.07,0 -7.96,-3.33 -7.96,-6.12 0,-1.74 0.79,-3.14 2.14,-4.24 1.59,-1.29 3,-1.59 6.57,-2.28 z"
               inkscape:connector-curvature="0"
               style="fill:#000000;stroke-width:0" /></g>        </g>
        <text
           xml:space="preserve"
           style="font-size:20px;font-style:italic;font-variant:normal;font-weight:normal;font-stretch:normal;text-align:start;line-height:125%;letter-spacing:0px;word-spacing:0px;writing-mode:lr-tb;text-anchor:start;fill:#000000;fill-opacity:1;stroke:none;font-family:Verdana;-inkscape-font-specification:Verdana Italic"
           x="628.57141"
           y="370.93362"
           id="text4460"
           sodipodi:linespacing="125%"><tspan
             sodipodi:role="line"
             id="tspan4462"
             x="628.57141"
             y="370.93362">Per-sample cluster</tspan></text>
      </g>
    </g>
    <g
       id="g4482"
       transform="translate(-11.930631,30.55051)">
      <path
         sodipodi:type="arc"
         style="fill:none;stroke:#050000;stroke-width:2.54138947;stroke-linecap:butt;stroke-linejoin:miter;stroke-miterlimit:4;stroke-opacity:1;stroke-dasharray:none"
         id="path3375-2-4"
         sodipodi:cx="525.71429"
         sodipodi:cy="205.21933"
         sodipodi:rx="85.714287"
         sodipodi:ry="41.42857"
         d="m 611.62584,214.60408 c -0.99625,3.31832 -2.86155,6.51254 -5.489,9.53014 -4.24813,4.87896 -10.49225,9.29901 -18.3017,13.04988 -12.02225,5.77428 -27.78435,9.98475 -45.42901,11.64403 m 17.69857,-5.91675 c -10.85037,2.21995 -22.7273,3.49569 -35.08451,3.556 -12.73409,0.0622 -24.6725,-1.17944 -35.32514,-3.50642 m 12.69104,3.57364 c -15.68104,-2.00766 -29.31103,-6.02751 -40.00334,-11.47587 -7.68472,-3.91581 -13.84742,-8.56491 -18.0806,-13.71083 -2.39859,-2.91577 -4.17643,-5.99082 -5.25083,-9.18729 m 11.8899,14.03296 c -1.59448,-1.3591 -3.03298,-2.77544 -4.30052,-4.24129 -4.19075,-4.84641 -6.50922,-10.23189 -6.44579,-15.89797 0.0634,-5.66607 2.50191,-11.07663 6.8737,-15.99335 4.37179,-4.91671 10.67181,-9.34317 18.47432,-13.02915 8.20523,-3.87623 18.06984,-6.93513 29.17562,-8.83066 m -28.46468,5.26736 c 7.46312,-3.47127 16.32414,-6.26806 26.25675,-8.22402 9.9326,-1.95596 20.93731,-3.07127 32.6305,-3.21277 9.39034,-0.11364 18.55109,0.40592 27.22737,1.44991 m -23.10167,1.91924 c 21.60993,0.87741 42.08042,4.5926 57.40499,10.69322 6.39843,2.54718 11.90464,5.50684 16.26141,8.81268 m -18.74202,-9.52452 c 7.27571,3.67593 13.29782,7.99764 17.55457,12.77453 4.39496,4.93199 6.90381,10.35039 7.0547,16.03101 0.15089,5.68063 -2.06238,11.08413 -6.13226,15.97431 -3.1406,3.7736 -7.38546,7.24137 -12.50994,10.29505 m 20.24825,-17.46837 c -1.09382,2.4119 -2.63778,4.75188 -4.59165,7.00214 -4.31211,4.96624 -10.62141,9.49552 -18.51541,13.41652 -10.42329,5.17731 -23.61895,9.30077 -38.56153,11.93634 m 16.37139,-1.13943 c -11.20156,2.83711 -23.98765,4.30265 -37.64652,4.0412 -20.19241,-0.38651 -39.01032,-4.45721 -53.8844,-10.74365 m 24.48609,4.79839 c -12.36619,-1.73619 -23.24476,-4.93466 -32.06896,-9.10995 -7.62881,-3.60969 -13.72312,-7.95366 -17.87603,-12.7842 -4.1529,-4.83053 -6.36712,-10.15437 -6.16242,-15.71681 0.19197,-5.21693 2.50269,-10.17775 6.59164,-14.63847 m -5.65038,24.82823 c -0.95831,-2.5557 -1.43758,-5.20281 -1.38147,-7.91537 0.11769,-5.68989 2.58598,-11.12689 6.95705,-16.08961 4.37106,-4.96272 10.63677,-9.45389 18.33662,-13.25897 8.83048,-4.3638 19.54086,-7.8273 31.5468,-10.03408 m -22.59624,2.02473 c 14.19512,-4.34244 30.93661,-7.09217 48.74711,-7.47484 14.49705,-0.31148 28.04848,1.00589 39.98387,3.69639 m -25.29526,-3.21367 c 17.43602,1.70451 32.85508,6.26926 44.87681,12.66225 7.89506,4.19848 14.31566,9.17695 18.80853,14.64795 3.75779,4.57589 6.16357,9.49214 6.96372,14.65456 m -8.73491,-21.35714 c 1.50175,1.39275 2.85986,2.82749 4.06238,4.30004 4.20062,5.14389 6.50224,10.74699 6.40504,16.6366 -0.0972,5.88962 -2.58509,11.51133 -7.03833,16.70746 -4.45324,5.19612 -10.86848,9.96332 -18.83669,14.16896 -2.71074,1.43073 -5.60155,2.79691 -8.6576,4.09484 m 32.77012,-25.03735 c -1.13193,2.6846 -2.82785,5.27775 -5.03087,7.75093 -4.35141,4.88503 -10.68143,9.3036 -18.56581,13.04414 -12.26503,5.81883 -28.30057,10.01538 -46.45516,11.61451 m 18.6713,-3.22635 c -10.51291,2.34978 -21.94702,3.69019 -33.80033,3.83987 -21.16572,0.26726 -40.05177,-3.2462 -54.35667,-9.0658 m 25.0863,7.75689 c -10.62585,-1.96596 -20.25685,-5.19453 -28.31396,-9.29672 -7.74408,-3.94281 -14.03448,-8.68975 -18.38678,-13.94042 -4.3523,-5.25068 -6.76755,-10.99926 -6.78195,-17.05907 -0.0144,-6.05981 2.37145,-11.87201 6.70554,-17.30117 1.82227,-2.28268 3.98918,-4.49711 6.46834,-6.63027 m -14.49132,24.28025 c -0.047,-0.56137 -0.0701,-1.12565 -0.0689,-1.69258 0.0121,-5.63746 2.42826,-11.00341 6.79774,-15.8447 4.36949,-4.84128 10.69263,-9.1596 18.52548,-12.68987 14.18807,-6.39456 33.32916,-10.22179 54.81079,-9.66622 m -32.21461,0.38251 c 10.77443,-2.28123 22.83235,-3.61951 35.68859,-3.76445 17.39576,-0.19613 33.89967,1.82662 48.01342,5.55639 m -23.5966,-2.35957 c 13.33457,1.86288 25.26026,5.28434 35.00424,9.78055 7.96973,3.6775 14.47442,8.07656 19.04816,12.96477 4.57373,4.88821 7.20814,10.26904 7.48849,15.90369 0.2195,4.41159 -1.01483,8.65041 -3.4341,12.59204"
         inkscape:path-effect="#path-effect3377-7-0"
         transform="matrix(0.95620548,0,0,1.4572997,12.993556,78.833732)" />
      <g
         transform="matrix(0.37957723,0,0,0.68481941,344.63695,152.75583)"
         id="g3848">
        <g
           style="font-style:normal;font-variant:normal;font-weight:normal;font-stretch:normal;letter-spacing:normal;word-spacing:normal;text-anchor:start;fill:none;stroke:#000000;stroke-width:1.9613806;stroke-linecap:butt;stroke-linejoin:miter;stroke-miterlimit:10.43299961;stroke-opacity:1;stroke-dasharray:none;stroke-dashoffset:0"
           id="g3850"
           transform="matrix(1.0629921,0,0,-1.0629921,-186.02362,789.27165)"
           xml:space="preserve"
           stroke-miterlimit="10.433"
           font-style="normal"
           font-variant="normal"
           font-weight="normal"
           font-stretch="normal"
           font-size-adjust="none"
           letter-spacing="normal"
           word-spacing="normal"><path
             style="fill:#000000;stroke-width:0"
             inkscape:connector-curvature="0"
             d="m 459.91,409.14 -0.02,-0.07 -0.01,-0.08 -0.02,-0.07 -0.01,-0.08 -0.04,-0.16 -0.04,-0.16 -0.03,-0.16 -0.04,-0.16 -0.04,-0.16 -0.04,-0.16 -0.01,-0.08 -0.02,-0.07 -0.02,-0.07 -0.01,-0.07 -0.02,-0.07 -0.01,-0.07 -0.01,-0.06 -0.01,-0.06 -0.01,-0.06 -0.01,-0.05 -0.01,-0.05 -0.01,-0.04 -0.01,-0.04 0,-0.04 0,-0.03 0,-0.02 c 0,-0.89 0.7,-1.35 1.43,-1.35 0.61,0 1.5,0.39 1.85,1.39 0.06,0.11 0.65,2.44 0.95,3.69 l 1.1,4.48 c 0.29,1.1 0.59,2.19 0.84,3.35 0.2,0.84 0.61,2.28 0.66,2.48 0.75,1.55 3.39,6.08 8.1,6.08 2.25,0 2.71,-1.84 2.71,-3.48 0,-3.1 -2.46,-9.47 -3.25,-11.61 -0.44,-1.14 -0.49,-1.75 -0.49,-2.3 0,-2.33 1.74,-4.08 4.08,-4.08 4.69,0 6.53,7.27 6.53,7.67 0,0.5 -0.45,0.5 -0.61,0.5 -0.48,0 -0.48,-0.15 -0.73,-0.9 -1,-3.38 -2.64,-6.17 -5.09,-6.17 -0.85,0 -1.19,0.5 -1.19,1.64 0,1.25 0.45,2.45 0.89,3.54 0.95,2.64 3.05,8.11 3.05,10.96 0,3.34 -2.15,5.32 -5.74,5.32 -4.48,0 -6.92,-3.18 -7.76,-4.32 -0.25,2.79 -2.3,4.32 -4.6,4.32 -2.28,0 -3.23,-1.93 -3.73,-2.82 -0.8,-1.71 -1.5,-4.64 -1.5,-4.85 0,-0.5 0.5,-0.5 0.61,-0.5 0.5,0 0.54,0.07 0.84,1.16 0.84,3.53 1.84,5.92 3.64,5.92 0.99,0 1.55,-0.64 1.55,-2.28 0,-1.05 -0.16,-1.61 -0.8,-4.19 z"
             id="path3852" /><path
             style="fill:#000000;stroke-width:0"
             inkscape:connector-curvature="0"
             d="m 515.93,420.04 -9.95,9.92 c -0.61,0.6 -0.7,0.71 -1.11,0.71 -0.48,0 -0.98,-0.46 -0.98,-1 0,-0.36 0.09,-0.46 0.64,-1 l 9.97,-10.02 -9.97,-10.01 c -0.55,-0.55 -0.64,-0.64 -0.64,-1 0,-0.55 0.5,-0.99 0.98,-0.99 0.41,0 0.5,0.1 1.11,0.69 l 9.91,9.92 10.31,-10.31 c 0.11,-0.05 0.45,-0.3 0.75,-0.3 0.59,0 1,0.44 1,0.99 0,0.11 0,0.31 -0.16,0.56 -0.04,0.09 -7.97,7.92 -10.45,10.45 l 9.11,9.13 c 0.25,0.29 1,0.93 1.25,1.23 0.05,0.11 0.25,0.3 0.25,0.66 0,0.54 -0.41,1 -1,1 -0.39,0 -0.6,-0.21 -1.14,-0.75 z"
             id="path3854" /><path
             style="fill:#000000;stroke-width:0"
             inkscape:connector-curvature="0"
             d="m 565.84,424.84 -0.13,-0.01 -0.13,-0.01 -0.12,-0.02 -0.13,-0.03 -0.12,-0.03 -0.11,-0.04 -0.12,-0.04 -0.11,-0.04 -0.1,-0.05 -0.11,-0.06 -0.1,-0.06 -0.09,-0.06 -0.1,-0.07 -0.09,-0.07 -0.08,-0.07 -0.08,-0.08 -0.08,-0.08 -0.07,-0.08 -0.07,-0.09 -0.07,-0.08 -0.05,-0.09 -0.06,-0.1 -0.05,-0.09 -0.05,-0.1 -0.04,-0.09 -0.03,-0.1 -0.03,-0.1 -0.03,-0.1 -0.02,-0.1 -0.01,-0.11 -0.01,-0.1 0,-0.1 c 0,-0.7 0.44,-1.44 1.55,-1.44 1.09,0 2.28,0.85 2.28,2.78 0,2.25 -2.14,4.28 -5.93,4.28 -6.57,0 -8.42,-5.07 -8.42,-7.26 0,-3.89 3.69,-4.64 5.13,-4.94 2.59,-0.5 5.19,-1.05 5.19,-3.78 0,-1.3 -1.15,-5.48 -7.13,-5.48 -0.7,0 -4.53,0 -5.69,2.64 1.91,-0.25 3.14,1.25 3.14,2.64 0,1.14 -0.79,1.75 -1.84,1.75 -1.3,0 -2.78,-1.05 -2.78,-3.3 0,-2.84 2.84,-4.83 7.12,-4.83 8.07,0 10.02,6.03 10.02,8.27 0,1.79 -0.95,3.04 -1.55,3.64 -1.34,1.39 -2.79,1.64 -4.98,2.09 -1.8,0.39 -3.78,0.75 -3.78,2.99 0,1.45 1.19,4.48 5.57,4.48 1.24,0 3.74,-0.34 4.49,-2.28 z"
             id="path3856" /><path
             style="fill:#000000;stroke-width:0"
             inkscape:connector-curvature="0"
             d="m 592.15,417.06 0,0.38 0.01,0.36 0.01,0.36 0.02,0.35 0.03,0.34 0.03,0.34 0.03,0.32 0.05,0.32 0.04,0.31 0.05,0.3 0.06,0.29 0.06,0.29 0.13,0.55 0.16,0.51 0.16,0.49 0.18,0.46 0.2,0.43 0.21,0.4 0.22,0.38 0.23,0.35 0.24,0.32 0.25,0.3 0.26,0.28 0.26,0.26 0.27,0.23 0.28,0.21 0.28,0.19 0.28,0.16 0.28,0.15 0.28,0.13 0.29,0.12 0.28,0.09 0.28,0.08 0.27,0.06 0.27,0.05 0.27,0.03 0.26,0.02 0.25,0.01 c 0.44,0 3.58,-0.05 5.33,-1.85 -2.05,-0.15 -2.35,-1.64 -2.35,-2.29 0,-1.3 0.89,-2.3 2.3,-2.3 1.28,0 2.28,0.86 2.28,2.34 0,3.39 -3.78,5.33 -7.62,5.33 -6.22,0 -10.82,-5.37 -10.82,-11.55 0,-6.37 4.94,-11.31 10.72,-11.31 6.68,0 8.27,5.99 8.27,6.47 0,0.5 -0.5,0.5 -0.64,0.5 -0.45,0 -0.55,-0.19 -0.66,-0.5 -1.44,-4.62 -4.67,-5.22 -6.51,-5.22 -2.65,0 -7.03,2.14 -7.03,10.16 z"
             id="path3858" /><path
             style="fill:#000000;stroke-width:0"
             inkscape:connector-curvature="0"
             d="m 631.86,416.86 -0.01,0.59 -0.04,0.59 -0.08,0.58 -0.09,0.57 -0.13,0.56 -0.15,0.55 -0.17,0.54 -0.2,0.53 -0.22,0.51 -0.25,0.5 -0.26,0.49 -0.29,0.47 -0.31,0.46 -0.33,0.44 -0.35,0.43 -0.36,0.4 -0.39,0.39 -0.4,0.37 -0.41,0.35 -0.44,0.32 -0.44,0.31 -0.46,0.28 -0.48,0.26 -0.49,0.24 -0.5,0.21 -0.51,0.18 -0.52,0.16 -0.53,0.13 -0.54,0.11 -0.54,0.07 -0.56,0.05 -0.56,0.01 -0.05,-1.09 c 2.19,0 4.33,-1.1 5.63,-3.24 1.29,-2.14 1.29,-5.03 1.29,-6.92 0,-1.8 0,-4.48 -1.09,-6.67 -1.1,-2.25 -3.28,-3.69 -5.78,-3.69 h 0 c -2.14,0 -4.33,1.05 -5.67,3.33 -1.25,2.2 -1.25,5.23 -1.25,7.03 0,1.94 0,4.63 1.18,6.83 1.36,2.28 3.69,3.33 5.69,3.33 l 0.05,1.09 c -6.22,0 -11.07,-5.42 -11.07,-11.65 0,-6.43 5.19,-11.21 11.02,-11.21 6.03,0 11.06,4.88 11.06,11.21 z"
             id="path3860" /><path
             style="fill:#000000;stroke-width:0"
             inkscape:connector-curvature="0"
             d="m 641.66,422.75 v 5.46 l -6.92,-0.54 v -1.55 c 3.49,0 3.89,-0.34 3.89,-2.78 v -13.36 c 0,-2.23 -0.54,-2.23 -3.89,-2.23 v -1.55 c 1.96,0.05 4.28,0.16 5.69,0.16 1.98,0 4.33,0 6.33,-0.16 v 1.55 h -1.05 c -3.69,0 -3.8,0.54 -3.8,2.34 v 7.67 c 0,4.92 2.1,9.36 5.89,9.36 0.35,0 0.44,0 0.55,-0.05 -0.15,-0.04 -1.15,-0.64 -1.15,-1.93 0,-1.41 1.04,-2.14 2.15,-2.14 0.89,0 2.14,0.59 2.14,2.18 0,1.6 -1.54,3.03 -3.69,3.03 -3.64,0 -5.43,-3.32 -6.14,-5.46 z"
             id="path3862" /><path
             style="fill:#000000;stroke-width:0"
             inkscape:connector-curvature="0"
             d="m 658.44,417.71 0.05,1.05 c 0.29,7.42 4.48,8.66 6.19,8.66 5.12,0 5.62,-6.72 5.62,-8.66 h -11.81 l -0.05,-1.05 h 13.91 c 1.09,0 1.23,0 1.23,1.05 0,4.92 -2.68,9.75 -8.9,9.75 -5.78,0 -10.38,-5.12 -10.38,-11.36 0,-6.67 5.23,-11.5 10.97,-11.5 6.08,0 8.31,5.53 8.31,6.47 0,0.5 -0.39,0.61 -0.64,0.61 -0.45,0 -0.54,-0.3 -0.66,-0.7 -1.73,-5.13 -6.21,-5.13 -6.71,-5.13 -2.5,0 -4.49,1.49 -5.63,3.33 -1.5,2.39 -1.5,5.69 -1.5,7.48 z"
             id="path3864" /><path
             style="fill:#000000;stroke-width:0"
             inkscape:connector-curvature="0"
             d="m 685.35,415.87 0.11,-0.02 0.13,-0.02 0.14,-0.03 0.15,-0.04 0.17,-0.04 0.18,-0.04 0.19,-0.05 0.2,-0.06 0.2,-0.06 0.22,-0.07 0.21,-0.08 0.22,-0.08 0.22,-0.1 0.22,-0.1 0.22,-0.11 0.22,-0.12 0.22,-0.14 0.21,-0.14 0.2,-0.15 0.2,-0.16 0.19,-0.18 0.18,-0.19 0.17,-0.2 0.16,-0.21 0.14,-0.22 0.07,-0.12 0.06,-0.12 0.06,-0.13 0.05,-0.12 0.05,-0.14 0.05,-0.13 0.04,-0.14 0.03,-0.14 0.03,-0.15 0.03,-0.15 0.02,-0.16 0.01,-0.15 0.01,-0.17 0,-0.16 c 0,-2.53 -1.75,-4.53 -5.62,-4.53 -4.19,0 -5.98,2.84 -6.94,7.07 -0.14,0.64 -0.19,0.85 -0.69,0.85 -0.65,0 -0.65,-0.35 -0.65,-1.25 v -6.58 c 0,-0.84 0,-1.19 0.55,-1.19 0.25,0 0.29,0.05 1.25,1 0.09,0.1 0.09,0.19 1,1.14 2.18,-2.09 4.43,-2.14 5.48,-2.14 5.72,0 8.02,3.35 8.02,6.92 0,2.64 -1.5,4.14 -2.1,4.74 -1.64,1.59 -3.59,2 -5.68,2.39 -2.79,0.55 -6.13,1.2 -6.13,4.09 0,1.74 1.3,3.78 5.58,3.78 5.48,0 5.73,-4.48 5.83,-6.03 0.06,-0.45 0.5,-0.45 0.6,-0.45 0.65,0 0.65,0.25 0.65,1.2 v 5.03 c 0,0.85 0,1.19 -0.55,1.19 -0.25,0 -0.35,0 -1,-0.59 -0.14,-0.21 -0.64,-0.64 -0.85,-0.8 -1.88,1.39 -3.93,1.39 -4.68,1.39 -6.08,0 -7.97,-3.33 -7.97,-6.12 0,-1.74 0.8,-3.14 2.14,-4.24 1.59,-1.29 3,-1.59 6.58,-2.28 z"
             id="path3866" /></g>      </g>
      <text
         sodipodi:linespacing="125%"
         id="text4464"
         y="366.64789"
         x="454.28571"
         style="font-size:20px;font-style:normal;font-variant:normal;font-weight:normal;font-stretch:normal;text-align:start;line-height:125%;letter-spacing:0px;word-spacing:0px;writing-mode:lr-tb;text-anchor:start;fill:#000000;fill-opacity:1;stroke:none;font-family:Verdana;-inkscape-font-specification:Verdana"
         xml:space="preserve"><tspan
           y="366.64789"
           x="454.28571"
           id="tspan4466"
           sodipodi:role="line">Full cluster</tspan></text>
    </g>
    <path
       style="fill:none;stroke:#050000;stroke-width:0.97799993;stroke-linecap:butt;stroke-linejoin:round;stroke-miterlimit:4;stroke-opacity:1"
       d="m 48.897763,520.59671 c 27.519609,-0.54017 53.714747,-0.20835 79.952467,-0.0724 m -20.88309,-3.00568 c 12.78336,-0.13032 25.77428,-0.12859 38.90099,-0.0527 0.16026,11.04581 0.41834,22.14508 0.73036,33.26244 m -2.52871,-14.47886 c -0.3176,12.08728 -0.37878,24.1529 -0.30981,36.14802 -12.57211,-0.22581 -25.00474,-0.52717 -37.43794,-0.95824 m 18.69521,0.81745 c -30.82391,0.63862 -62.970161,0.3889 -94.056232,0.97943 m 24.558143,-2.57353 C 39.629879,570.41782 23.366887,570.29709 7.5116019,570.11507 8.028292,558.322 8.7465515,546.49863 9.5903984,534.58047 M 7.951898,559.88749 c -0.2541624,-13.33685 -0.1181154,-27.1158 0.2824005,-41.222 12.3082535,-0.47648 24.8219165,-1.20713 37.4549195,-2.11336 m -21.730354,0.17759 c 24.458539,0.006 50.140481,-0.15639 76.306166,-0.48124 m -34.187723,0.0437 c 23.696548,-0.13697 46.557083,0.45133 68.995303,1.56837 m -12.97355,1.54899 c 9.1648,0.10138 18.22887,0.0896 27.22476,-0.0136 -0.0463,17.83893 -0.36546,35.31193 -0.69664,52.59343 -3.71871,-0.15459 -7.43792,-0.31702 -11.15545,-0.48585 m 10.86381,-16.26549 c -0.0578,4.97346 -0.0835,9.92496 -0.0807,14.86307 -25.47153,0.51853 -50.155633,0.66563 -74.598538,1.69155 m 23.544461,1.65943 c -26.587119,0.23745 -54.485953,-0.0147 -82.07525,-0.29078 m 17.323971,-2.82634 c -8.233335,0.13301 -16.594396,0.16022 -25.0365972,0.10724 0.071075,-18.15822 -0.2256666,-36.67992 -0.4406043,-55.31785 3.4504175,-0.11466 6.9038985,-0.23367 10.3637015,-0.35525 M 5.5070002,529.52797 c 0.1048986,-4.58902 0.1952198,-9.14807 0.2770203,-13.67561 23.6616555,0.44072 47.1070585,1.68128 71.1105765,3.91977 m -16.887954,-3.88586 c 23.942456,0.71787 48.257817,1.26173 72.039567,2.78862 M 116.78545,518.253 c 10.30801,-0.16846 20.51925,-0.23609 30.64501,-0.25016 -0.22872,16.04718 -0.66666,32.22542 -1.27068,48.35371 m 0.14453,-19.25476 c -0.0828,8.35964 -0.076,16.68867 0.005,25.0122 -22.11776,0.27876 -43.68451,0.51695 -64.9999,1.21864 m 26.16991,0.596 c -32.012537,0.40195 -64.737143,-1.20298 -97.086955,-3.69545 5.6e-5,-0.0462 1.12e-4,-0.0924 1.69e-4,-0.13864 m 26.913171,0.59192 c -9.407606,0.13476 -18.796465,0.27995 -28.1618143,0.46806 0.1147655,-17.68527 0.3157101,-35.2132 0.6362621,-52.35579 5.2908972,0.26009 10.5917212,0.55215 15.9032702,0.88166 M 6.4364932,529.76321 c 0.014486,-4.38324 0.045579,-8.78211 0.094113,-13.19532 23.2420324,-0.0325 46.9586664,-0.45555 71.2681974,-1.08946"
       id="rect3764"
       inkscape:connector-curvature="0"
       inkscape:path-effect="#path-effect3785"
       inkscape:original-d="m 8.5380229,517.62816 138.9773271,0 0,54.13628 -138.9773271,0 z" />
    <text
       xml:space="preserve"
       style="font-size:18px;font-style:normal;font-variant:normal;font-weight:normal;font-stretch:normal;text-align:start;line-height:125%;letter-spacing:0px;word-spacing:0px;writing-mode:lr-tb;text-anchor:start;fill:#000000;fill-opacity:1;stroke:none;font-family:Verdana;-inkscape-font-specification:Verdana"
       x="29.504868"
       y="550.49506"
       id="text3791"
       sodipodi:linespacing="125%"><tspan
         sodipodi:role="line"
         x="29.504868"
         y="550.49506"
         id="tspan3795">Alignment</tspan></text>
    <path
       style="fill:none;stroke:#050000;stroke-width:0.97799993;stroke-linecap:butt;stroke-linejoin:round;stroke-miterlimit:4;stroke-opacity:1"
       d="m 377.63375,510.08701 c 27.51961,-0.54017 53.71475,-0.20835 79.95247,-0.0724 m -20.8831,-3.00568 c 15.50494,-0.15806 31.31521,-0.12187 47.30278,0.005 0.15475,8.2936 0.35823,16.61222 0.59199,24.941 m -2.52871,-14.47886 c -0.63386,24.12401 -0.24637,48.1617 0.15881,71.72493 -0.47336,-0.016 -0.94672,-0.0323 -1.42007,-0.0487 m 3.4571,-14.42065 c 0.13925,5.18172 0.24452,10.34062 0.32564,15.48381 -26.18833,0.33445 -53.03984,0.23783 -79.14377,0.73372 m 24.55814,-2.57353 c -28.76469,-0.41712 -55.71276,-0.47402 -81.924,-1.087 m 19.91713,3.75138 c -10.6323,0.17595 -21.03363,0.0902 -31.26125,-0.20489 0.30226,-15.51059 0.96737,-31.45856 1.82245,-47.68603 m -4.1449,17.76304 c -0.32023,-18.22662 0.0156,-36.54331 0.71699,-54.948 6.9214,-0.0635 13.89167,-0.13885 20.8966,-0.22582 m -14.43897,0.0437 c 23.69654,-0.13697 46.55708,0.45133 68.9953,1.56837 m -15.18511,1.54899 c 30.74107,0.34006 60.3487,-0.59329 90.05212,-1.97828 -0.008,0.44281 -0.0168,0.88552 -0.0252,1.32812 m -24.1731,-3.13874 c 7.9314,0.22196 15.95121,0.38351 24.04235,0.52373 0.17742,22.68774 0.9053,45.21085 1.81783,68.40671 m -1.28574,-23.17079 c 0.39649,13.54803 0.47768,26.97837 0.43464,40.34591 -14.00897,-0.0666 -28.15223,-0.20112 -42.21507,-0.34186 m 17.32397,-2.82634 c -29.15519,0.471 -59.912,-0.38469 -90.20185,-1.42958 m 22.9682,0.91385 c -19.51102,0.11249 -39.29485,0.78578 -58.86115,2.14531 0.15768,-7.36183 0.34943,-14.61621 0.60561,-21.75538 m 2.00126,17.07789 c -0.56276,-23.78733 -0.7526,-47.74869 -1.47606,-70.727 m 0.95288,15.79174 c 0.0261,-7.56263 0.001,-15.07235 -0.0697,-22.54714 18.71982,-0.0868 37.13968,0.0518 55.32977,0.12131 m -5.69761,-0.52065 c 30.25218,0.5156 61.74191,0.60811 93.70205,1.56802 m -24.26108,0.596 c 10.08918,0.12374 20.11086,0.0573 30.09677,-0.16674 0.0305,21.95794 -0.12046,43.11652 -0.0905,63.84899 m -1.3627,-27.94141 c 0.0271,14.6655 0.0984,29.35556 0.23093,44.18746 -18.04353,0.46993 -35.9898,1.16485 -53.80447,2.31909 m 25.16492,-3.13811 c -27.30578,0.14753 -53.96977,-0.30842 -79.79175,-1.06385 m 16.40784,2.14178 c -19.42982,-0.26491 -38.91613,-0.36072 -58.02714,-0.56962 0.37258,-10.32546 0.84476,-20.68094 1.47557,-31.10502 m -0.51377,27.53062 c 0.20201,-25.54179 0.002,-51.21154 -0.25027,-77.32644 6.07301,-0.18174 12.143,-0.38952 18.2149,-0.62781 m -18.12895,6.67785 c -0.0484,-2.87729 -0.085,-5.73751 -0.11077,-8.58239 29.59932,-0.5354 60.43816,0.6803 91.2869,1.50363"
       id="rect3764-8"
       inkscape:connector-curvature="0"
       inkscape:path-effect="#path-effect3785-3"
       inkscape:original-d="m 337.27401,507.11846 147.24074,0 0,82.35935 -147.24074,0 z" />
    <text
       xml:space="preserve"
       style="font-size:18px;font-style:normal;font-variant:normal;font-weight:normal;font-stretch:normal;text-align:start;line-height:125%;letter-spacing:0px;word-spacing:0px;writing-mode:lr-tb;text-anchor:start;fill:#000000;fill-opacity:1;stroke:none;font-family:Verdana;-inkscape-font-specification:Verdana"
       x="346.64771"
       y="544.78076"
       id="text3791-5"
       sodipodi:linespacing="125%"><tspan
         sodipodi:role="line"
         x="346.64771"
         y="544.78076"
         id="tspan3795-5">Post-alignment</tspan><tspan
         sodipodi:role="line"
         x="346.64771"
         y="567.28076"
         id="tspan4624">preparation</tspan></text>
    <text
       inkscape:transform-center-y="14.285714"
       inkscape:transform-center-x="51.428571"
       sodipodi:linespacing="125%"
       id="text3401-6"
       y="621.46588"
       x="15.06627"
       style="font-size:20px;font-style:italic;font-variant:normal;font-weight:normal;font-stretch:normal;text-align:start;line-height:125%;letter-spacing:0px;word-spacing:0px;writing-mode:lr-tb;text-anchor:start;fill:#000000;fill-opacity:1;stroke:none;font-family:Verdana;-inkscape-font-specification:Verdana Italic"
       xml:space="preserve"><tspan
         id="tspan3415-4"
         y="621.46588"
         x="15.06627"
         sodipodi:role="line">Pipeline analysis steps</tspan></text>
    <path
       style="fill:none;stroke:#050000;stroke-width:0.97799993;stroke-linecap:butt;stroke-linejoin:round;stroke-miterlimit:4;stroke-opacity:1"
       d="m 540.78934,511.47443 c 19.48396,-0.38244 38.304,-0.32778 56.94529,-0.21499 -0.1403,7.87494 -0.311,15.75976 -0.47807,23.62789 m -1.47629,-22.41248 c -0.28572,23.67834 0.13799,47.808 0.81763,72.0235 m -2.52871,-14.47886 c -0.20218,7.6946 -0.30045,15.38043 -0.32738,23.04487 -17.14114,-0.24243 -33.93791,-0.58806 -50.73573,-1.17046 m 18.69521,0.81745 c -19.94498,0.41323 -40.4436,0.45451 -60.8504,0.59217 0.0547,-11.11049 0.13677,-22.1923 0.35087,-33.16945 m -2.5614,24.54602 c -0.46448,-26.13891 0.58084,-51.97843 2.31782,-78.21283 2.66492,-0.0461 5.33633,-0.0959 8.0135,-0.15009 m -9.1282,17.8173 c -0.0879,-4.60959 -0.12908,-9.272 -0.12889,-13.98248 20.83304,-0.097 42.48381,-1.14303 64.49694,-2.72214 m -10.15701,0.17759 c 12.96837,0.003 26.28068,-0.0411 39.82666,-0.13166 0.30635,11.61534 0.79614,23.19424 1.39269,34.73724 m 2.2957,-16.69099 c 0.26531,21.65951 -0.1934,43.94714 -1.04272,66.70448 -1.68781,0.0724 -3.37778,0.14731 -5.0698,0.22482 m 6.6985,-8.37617 c 0.0535,3.34558 0.0934,6.67592 0.12136,9.99211 -27.17603,0.0647 -55.17205,-0.84214 -83.07397,-2.10928 m 25.38274,-1.74657 c -13.26857,0.36255 -26.30127,0.56394 -39.17247,0.77443 0.31608,-16.93723 0.91049,-33.85877 1.61493,-50.3794 m -1.28574,26.48963 c 0.55991,-18.80314 0.49105,-37.84095 0.33148,-56.95892 8.3574,-0.0668 16.69688,-0.14952 25.06566,-0.23447 m -23.20474,-2.82634 c 30.87085,0.471 60.14008,-0.38469 89.87628,-1.42958 m -45.55303,0.91385 c 15.41789,0.0849 30.68023,0.48963 45.99812,1.26806 0.20588,13.44976 0.45174,27.16851 0.86648,41.18923 m 2.00126,-24.8496 c -0.50759,22.75042 -0.7118,45.35927 -1.27782,68.67558 -2.46381,0.13188 -4.93189,0.27212 -7.4051,0.4218 m 8.15974,-9.42867 c 0.0105,2.95302 0.0128,5.91466 0.007,8.88373 -23.38331,-0.25801 -47.24913,-0.0668 -71.4653,0.019 m 18.87864,-0.52065 c -15.08458,0.25197 -29.87361,0.40289 -44.45663,0.60339 0.36744,-15.41592 0.96042,-30.77757 1.67639,-45.91245 m 0.95441,25.81149 c 0.2423,-20.42716 0.19425,-41.67262 0.13884,-63.44494 11.71959,-0.61839 23.4368,-1.40685 35.20352,-2.31191 m -29.76731,0.46319 c 29.80134,0.42529 59.7894,0.95449 90.1139,2.60881 0.0569,3.08635 0.11706,6.18357 0.18061,9.29263"
       id="rect3764-8-5"
       inkscape:connector-curvature="0"
       inkscape:path-effect="#path-effect3785-3-8"
       inkscape:original-d="m 500.4296,508.50588 96.08516,0 0,83.71308 -96.08516,0 z" />
    <text
       xml:space="preserve"
       style="font-size:18px;font-style:normal;font-variant:normal;font-weight:normal;font-stretch:normal;text-align:start;line-height:125%;letter-spacing:0px;word-spacing:0px;writing-mode:lr-tb;text-anchor:start;fill:#000000;fill-opacity:1;stroke:none;font-family:Verdana;-inkscape-font-specification:Verdana"
       x="516.64777"
       y="546.20935"
       id="text3791-5-0"
       sodipodi:linespacing="125%"><tspan
         sodipodi:role="line"
         x="516.64777"
         y="546.20935"
         id="tspan4624-5">Variant </tspan><tspan
         id="tspan4688"
         sodipodi:role="line"
         x="516.64777"
         y="568.70935">calling</tspan></text>
    <g
       id="g4677"
       transform="translate(2.8571425,-47.142857)">
      <path
         inkscape:original-d="m 154.59306,555.39183 156.91101,0 0,74.32663 -156.91101,0 z"
         inkscape:path-effect="#path-effect3785-3-7"
         inkscape:connector-curvature="0"
         id="rect3764-8-2"
         d="m 194.9528,558.36038 c 27.51961,-0.54017 53.71475,-0.20835 79.95247,-0.0723 m -20.8831,-3.00568 c 18.68986,-0.19053 37.82338,-0.0988 57.17628,0.0944 0.11562,5.05457 0.24659,10.11625 0.38876,15.18169 m -2.96585,-14.04172 c 0.14192,-0.002 0.28388,-0.003 0.42588,-0.005 -0.63025,24.45514 -0.21698,48.81918 0.19409,72.68773 m 2.01301,-15.86474 c 0.15421,5.73856 0.26676,11.44915 0.35097,17.14141 -25.67726,0.31068 -51.96302,0.22795 -77.53155,0.71367 m 24.55814,-2.57353 c -28.76469,-0.41712 -55.71276,-0.47402 -81.924,-1.087 m 19.91713,3.75138 c -14.47219,0.2395 -28.51646,-0.006 -42.27721,-0.6041 0.35466,-11.79131 0.88918,-23.80652 1.53059,-35.979 m -4.1449,17.76304 c -0.3394,-19.31807 0.0582,-38.73732 0.84687,-58.25527 5.80076,-0.0564 11.63407,-0.12093 17.49162,-0.19365 m -14.42413,0.0585 c 6e-5,-0.005 1.2e-4,-0.01 1.8e-4,-0.0149 23.69119,-0.13664 46.5468,0.45165 68.98028,1.56845 m -11.91001,1.54899 c 31.21263,0.34527 61.25678,-0.62223 91.41911,-2.04233 m -25.56527,-1.74657 c 11.11632,0.31109 22.40631,0.50352 33.82297,0.68485 0.28137,19.38227 0.92687,38.73264 1.70748,58.57532 m -1.28574,-23.17079 c 0.4126,14.09861 0.48376,28.06978 0.42879,41.97534 -13.47115,-0.069 -27.05854,-0.1985 -40.57167,-0.33374 m 17.32397,-2.82634 c -29.15519,0.471 -59.912,-0.38469 -90.20185,-1.42958 m 22.9682,0.91385 c -23.19462,0.13373 -46.77478,1.06 -69.9167,2.98955 0.10306,-3.79469 0.21939,-7.55899 0.35334,-11.2918 m 10.57353,8.50562 c -2.92305,0.0837 -5.84102,0.16505 -8.75536,0.24586 -0.4312,-21.03557 -0.65387,-42.10166 -1.29297,-62.40059 m 0.95288,15.79174 c 0.0299,-8.67223 -0.007,-17.27489 -0.10399,-25.83508 17.60613,-0.0582 34.94954,0.0687 52.08897,0.13415 M 188.07443,555.392 c 30.25218,0.5156 61.74192,0.60811 93.70205,1.56802 m -74.5582,0.596 c 32.81484,0.40249 64.91573,-1.20723 97.39385,-3.70536 m -29.76731,0.46319 c 12.40706,0.17706 24.84648,0.37213 37.32906,0.6589 0.16179,20.7552 0.4394,41.75646 0.88033,63.32766 m -3.65167,-31.9547 c 0.0463,14.17153 0.26257,28.1833 0.67597,42.07672 -12.91013,-0.19079 -25.64472,-0.48695 -38.18086,-0.8537 m 16.40784,2.14178 c -29.43933,-0.40139 -59.00831,-0.41454 -87.2051,-1.02111 m 23.87068,3.14618 c -23.64448,-0.16762 -47.64416,-0.44823 -71.70826,-1.10505 -0.0739,-7.87426 -0.15442,-15.78741 -0.23196,-23.7482 m 4.07004,21.28271 c -1.28763,-0.0374 -2.57283,-0.0712 -3.85568,-0.10173 -0.3361,-25.37288 0.22361,-49.46594 0.97776,-73.50179 6.82979,0.19788 13.6735,0.39986 20.51769,0.58253 m -22.1554,11.43952 c 0.005,-3.00891 0.009,-6.02664 0.0129,-9.05394 28.63378,-0.47838 57.21869,-1.83899 85.8457,-4.74085"
         style="fill:none;stroke:#050000;stroke-width:0.97799999;stroke-linecap:butt;stroke-linejoin:round;stroke-miterlimit:4;stroke-opacity:1" />
      <text
         sodipodi:linespacing="125%"
         id="text3791-5-2"
         y="587.63794"
         x="168.07631"
         style="font-size:18px;font-style:normal;font-variant:normal;font-weight:normal;font-stretch:normal;text-align:start;line-height:125%;letter-spacing:0px;word-spacing:0px;writing-mode:lr-tb;text-anchor:start;fill:#000000;fill-opacity:1;stroke:none;font-family:Verdana;-inkscape-font-specification:Verdana"
         xml:space="preserve"><tspan
           id="tspan4624-0"
           y="587.63794"
           x="168.07631"
           sodipodi:role="line">Callability</tspan><tspan
           id="tspan4675"
           y="610.13794"
           x="168.07631"
           sodipodi:role="line">assessment</tspan></text>
    </g>
    <path
       style="fill:none;stroke:#000000;stroke-width:3;stroke-linecap:butt;stroke-linejoin:miter;stroke-miterlimit:4;stroke-opacity:1;stroke-dasharray:none;stroke-dashoffset:0"
       d="m 5.7142858,485.21933 1049.9999142,1.42857 0,0 0,0"
       id="path4694"
       inkscape:connector-curvature="0" />
    <path
       style="fill:none;stroke:#000000;stroke-width:3.00000405;stroke-linecap:butt;stroke-linejoin:miter;stroke-miterlimit:4;stroke-opacity:1;stroke-dasharray:3.00000405, 3.00000405;stroke-dashoffset:0"
       d="m 323.42857,393.0745 1.71427,238.57142 0,0 0,0"
       id="path4694-7"
       inkscape:connector-curvature="0" />
    <path
       style="fill:none;stroke:#000000;stroke-width:3.00000405;stroke-linecap:butt;stroke-linejoin:miter;stroke-miterlimit:4;stroke-opacity:1;stroke-dasharray:3.00000405, 3.00000405;stroke-dashoffset:0"
       d="m 610.57144,395.93362 1.71427,238.57142 0,0 0,0"
       id="path4694-7-3"
       inkscape:connector-curvature="0" />
    <path
       style="fill:none;stroke:#050000;stroke-width:0.97799993;stroke-linecap:butt;stroke-linejoin:round;stroke-miterlimit:4;stroke-opacity:1"
       d="m 666.67159,512.54939 c 19.48396,-0.38244 38.304,-0.32778 56.94529,-0.21499 -0.1403,7.87494 -0.311,15.75976 -0.47807,23.62789 m -1.47629,-22.41248 c -0.28572,23.67834 0.13799,47.808 0.81763,72.0235 m -2.52871,-14.47886 c -0.20218,7.6946 -0.30045,15.38042 -0.32738,23.04486 -17.14115,-0.24243 -33.93792,-0.58806 -50.73574,-1.17046 m 18.69521,0.81745 c -19.94497,0.41323 -40.44359,0.45451 -60.85039,0.59217 0.0547,-11.11049 0.13677,-22.19231 0.35087,-33.16946 m -2.5614,24.54602 c -0.46447,-26.1389 0.58084,-51.97842 2.31781,-78.21281 2.66493,-0.0461 5.33636,-0.0959 8.01353,-0.15009 m -9.12822,17.81728 c -0.0879,-4.60959 -0.12908,-9.27199 -0.12889,-13.98246 20.83304,-0.097 42.48382,-1.14303 64.49696,-2.72214 m -10.15703,0.17759 c 12.96837,0.003 26.28068,-0.0411 39.82666,-0.13166 0.30635,11.61534 0.79614,23.19424 1.39269,34.73724 m 2.2957,-16.69099 c 0.26531,21.65951 -0.1934,43.94713 -1.04272,66.70447 -1.68781,0.0724 -3.37779,0.14731 -5.06981,0.22482 m 6.69851,-8.37616 c 0.0535,3.34557 0.0934,6.67592 0.12136,9.9921 -27.17603,0.0647 -55.17206,-0.84214 -83.07398,-2.10928 m 25.38274,-1.74657 c -13.26857,0.36255 -26.30126,0.56394 -39.17246,0.77443 0.31608,-16.93723 0.91049,-33.85878 1.61493,-50.37941 m -1.28574,26.48963 c 0.55991,-18.80313 0.49105,-37.84094 0.33148,-56.9589 8.3574,-0.0669 16.69689,-0.14952 25.06568,-0.23447 m -23.20474,-2.82634 c 30.87085,0.471 60.14008,-0.38469 89.87628,-1.42958 m -45.55305,0.91385 c 15.41789,0.0849 30.68023,0.48963 45.99812,1.26806 0.20588,13.44976 0.45174,27.16851 0.86648,41.18923 m 2.00126,-24.8496 c -0.50759,22.75042 -0.7118,45.35926 -1.27782,68.67557 -2.46382,0.13188 -4.9319,0.27212 -7.40511,0.4218 m 8.15975,-9.42866 c 0.0105,2.95302 0.0128,5.91465 0.007,8.88372 -23.38331,-0.25801 -47.24914,-0.0668 -71.46531,0.019 m 18.87864,-0.52065 c -15.08458,0.25197 -29.87361,0.40289 -44.45662,0.60339 0.36744,-15.41592 0.96042,-30.77758 1.67639,-45.91246 m 0.95441,25.81149 c 0.2423,-20.42715 0.19425,-41.6726 0.13884,-63.44491 11.7196,-0.6184 23.43681,-1.40686 35.20354,-2.31192 m -29.76731,0.46319 c 29.80133,0.42529 59.78939,0.95449 90.11387,2.60881 0.0569,3.08635 0.11707,6.18358 0.18062,9.29265"
       id="rect3764-8-5-4"
       inkscape:connector-curvature="0"
       inkscape:path-effect="#path-effect3785-3-8-4"
       inkscape:original-d="m 626.31185,509.58084 96.08516,0 0,83.71307 -96.08516,0 z" />
    <text
       xml:space="preserve"
       style="font-size:18px;font-style:normal;font-variant:normal;font-weight:normal;font-stretch:normal;text-align:start;line-height:125%;letter-spacing:0px;word-spacing:0px;writing-mode:lr-tb;text-anchor:start;fill:#000000;fill-opacity:1;stroke:none;font-family:Verdana;-inkscape-font-specification:Verdana"
       x="642.53003"
       y="547.2843"
       id="text3791-5-0-1"
       sodipodi:linespacing="125%"><tspan
         id="tspan4688-2"
         sodipodi:role="line"
         x="642.53003"
         y="547.2843">Merge</tspan><tspan
         sodipodi:role="line"
         x="642.53003"
         y="569.7843"
         id="tspan5577">variants</tspan></text>
    <path
       style="fill:none;stroke:#050000;stroke-width:0.97799993;stroke-linecap:butt;stroke-linejoin:round;stroke-miterlimit:4;stroke-opacity:1"
       d="m 773.81445,512.54939 c 19.48396,-0.38244 38.304,-0.32778 56.94529,-0.21499 -0.1403,7.87494 -0.311,15.75976 -0.47807,23.62789 m -1.47629,-22.41248 c -0.28572,23.67834 0.13799,47.808 0.81763,72.0235 m -2.52871,-14.47886 c -0.20218,7.6946 -0.30045,15.38042 -0.32738,23.04486 -17.14115,-0.24243 -33.93792,-0.58806 -50.73574,-1.17046 m 18.69521,0.81745 c -19.94497,0.41323 -40.44359,0.45451 -60.85039,0.59217 0.0547,-11.11049 0.13677,-22.19231 0.35087,-33.16946 m -2.5614,24.54602 c -0.46447,-26.1389 0.58084,-51.97842 2.31781,-78.21281 2.66493,-0.0461 5.33636,-0.0959 8.01353,-0.15009 m -9.12822,17.81728 c -0.0879,-4.60959 -0.12908,-9.27199 -0.12889,-13.98246 20.83304,-0.097 42.48382,-1.14303 64.49696,-2.72214 m -10.15703,0.17759 c 12.96837,0.003 26.28068,-0.0411 39.82666,-0.13166 0.30635,11.61534 0.79614,23.19424 1.39269,34.73724 m 2.2957,-16.69099 c 0.26531,21.65951 -0.1934,43.94713 -1.04272,66.70447 -1.68781,0.0724 -3.37779,0.14731 -5.06981,0.22482 m 6.69851,-8.37616 c 0.0535,3.34557 0.0934,6.67592 0.12136,9.9921 -27.17603,0.0647 -55.17206,-0.84214 -83.07398,-2.10928 m 25.38274,-1.74657 c -13.26857,0.36255 -26.30126,0.56394 -39.17246,0.77443 0.31608,-16.93723 0.91049,-33.85878 1.61493,-50.37941 m -1.28574,26.48963 c 0.55991,-18.80313 0.49105,-37.84094 0.33148,-56.9589 8.3574,-0.0669 16.69689,-0.14952 25.06568,-0.23447 m -23.20474,-2.82634 c 30.87085,0.471 60.14008,-0.38469 89.87628,-1.42958 m -45.55305,0.91385 c 15.41789,0.0849 30.68023,0.48963 45.99812,1.26806 0.20588,13.44976 0.45174,27.16851 0.86648,41.18923 m 2.00126,-24.8496 c -0.50759,22.75042 -0.7118,45.35926 -1.27782,68.67557 -2.46382,0.13188 -4.9319,0.27212 -7.40511,0.4218 m 8.15975,-9.42866 c 0.0105,2.95302 0.0128,5.91465 0.007,8.88372 -23.38331,-0.25801 -47.24914,-0.0668 -71.46531,0.019 m 18.87864,-0.52065 c -15.08458,0.25197 -29.87361,0.40289 -44.45662,0.60339 0.36744,-15.41592 0.96042,-30.77758 1.67639,-45.91246 m 0.95441,25.81149 c 0.2423,-20.42715 0.19425,-41.6726 0.13884,-63.44491 11.7196,-0.6184 23.43681,-1.40686 35.20354,-2.31192 m -29.76731,0.46319 c 29.80133,0.42529 59.78939,0.95449 90.11387,2.60881 0.0569,3.08635 0.11707,6.18358 0.18062,9.29265"
       id="rect3764-8-5-48"
       inkscape:connector-curvature="0"
       inkscape:path-effect="#path-effect3785-3-8-6"
       inkscape:original-d="m 733.45471,509.58084 96.08516,0 0,83.71307 -96.08516,0 z" />
    <text
       xml:space="preserve"
       style="font-size:18px;font-style:normal;font-variant:normal;font-weight:normal;font-stretch:normal;text-align:start;line-height:125%;letter-spacing:0px;word-spacing:0px;writing-mode:lr-tb;text-anchor:start;fill:#000000;fill-opacity:1;stroke:none;font-family:Verdana;-inkscape-font-specification:Verdana"
       x="749.67285"
       y="547.2843"
       id="text3791-5-0-8"
       sodipodi:linespacing="125%"><tspan
         id="tspan4688-1"
         sodipodi:role="line"
         x="749.67285"
         y="547.2843">Filter</tspan><tspan
         sodipodi:role="line"
         x="749.67285"
         y="569.7843"
         id="tspan5581">variants</tspan></text>
    <path
       style="fill:none;stroke:#050000;stroke-width:0.97799993;stroke-linecap:butt;stroke-linejoin:round;stroke-miterlimit:4;stroke-opacity:1"
       d="m 880.95731,512.5494 c 19.48396,-0.38244 38.304,-0.32778 56.94529,-0.21499 -0.1403,7.87494 -0.311,15.75976 -0.47807,23.62789 m -1.47629,-22.41248 c -0.28572,23.67834 0.13799,47.808 0.81763,72.0235 m -2.52871,-14.47886 c -0.20218,7.6946 -0.30045,15.38042 -0.32738,23.04486 -17.14115,-0.24243 -33.93792,-0.58806 -50.73574,-1.17046 m 18.69521,0.81745 c -19.94497,0.41323 -40.44359,0.45451 -60.85039,0.59217 0.0547,-11.11049 0.13677,-22.19231 0.35087,-33.16946 m -2.5614,24.54602 c -0.46447,-26.1389 0.58084,-51.97842 2.31781,-78.21281 2.66493,-0.0461 5.33636,-0.0959 8.01353,-0.15009 m -9.12822,17.81728 c -0.0879,-4.60959 -0.12908,-9.27199 -0.12889,-13.98246 20.83304,-0.097 42.48382,-1.14303 64.49696,-2.72214 m -10.15703,0.17759 c 12.96837,0.003 26.28068,-0.0411 39.82666,-0.13166 0.30635,11.61534 0.79614,23.19424 1.39269,34.73724 m 2.2957,-16.69099 c 0.26531,21.65951 -0.1934,43.94713 -1.04272,66.70447 -1.68781,0.0724 -3.37779,0.14731 -5.06981,0.22482 m 6.69851,-8.37616 c 0.0535,3.34557 0.0934,6.67592 0.12136,9.9921 -27.17603,0.0647 -55.17206,-0.84214 -83.07398,-2.10928 m 25.38274,-1.74657 c -13.26857,0.36255 -26.30126,0.56394 -39.17246,0.77443 0.31608,-16.93723 0.91049,-33.85878 1.61493,-50.37941 m -1.28574,26.48963 c 0.55991,-18.80313 0.49105,-37.84094 0.33148,-56.9589 8.3574,-0.0668 16.69689,-0.14952 25.06568,-0.23447 m -23.20474,-2.82634 c 30.87085,0.471 60.14008,-0.38469 89.87628,-1.42958 m -45.55305,0.91385 c 15.41789,0.0849 30.68023,0.48963 45.99812,1.26806 0.20588,13.44976 0.45174,27.16851 0.86648,41.18923 m 2.00126,-24.8496 c -0.50759,22.75042 -0.7118,45.35926 -1.27782,68.67557 -2.46382,0.13188 -4.9319,0.27212 -7.40511,0.4218 m 8.15975,-9.42866 c 0.0105,2.95302 0.0128,5.91465 0.007,8.88372 -23.38331,-0.25801 -47.24914,-0.0668 -71.46531,0.019 m 18.87864,-0.52065 c -15.08458,0.25197 -29.87361,0.40289 -44.45662,0.60339 0.36744,-15.41592 0.96042,-30.77758 1.67639,-45.91246 m 0.95441,25.81149 c 0.2423,-20.42715 0.19425,-41.6726 0.13884,-63.44491 11.7196,-0.6184 23.43681,-1.40686 35.20354,-2.31192 m -29.76731,0.46319 c 29.80133,0.42529 59.78939,0.95449 90.11387,2.60881 0.0569,3.08635 0.11707,6.18358 0.18062,9.29265"
       id="rect3764-8-5-3"
       inkscape:connector-curvature="0"
       inkscape:path-effect="#path-effect3785-3-8-3"
       inkscape:original-d="m 840.59757,509.58085 96.08516,0 0,83.71307 -96.08516,0 z" />
    <text
       xml:space="preserve"
       style="font-size:18px;font-style:normal;font-variant:normal;font-weight:normal;font-stretch:normal;text-align:start;line-height:125%;letter-spacing:0px;word-spacing:0px;writing-mode:lr-tb;text-anchor:start;fill:#000000;fill-opacity:1;stroke:none;font-family:Verdana;-inkscape-font-specification:Verdana"
       x="856.81573"
       y="547.2843"
       id="text3791-5-0-4"
       sodipodi:linespacing="125%"><tspan
         id="tspan4688-9"
         sodipodi:role="line"
         x="856.81573"
         y="547.2843">Assess</tspan><tspan
         sodipodi:role="line"
         x="856.81573"
         y="569.7843"
         id="tspan5585">variants</tspan></text>
    <path
       style="fill:none;stroke:#050000;stroke-width:0.97799993;stroke-linecap:butt;stroke-linejoin:round;stroke-miterlimit:4;stroke-opacity:1"
       d="m 986.6716,512.5494 c 19.484,-0.38244 38.3041,-0.32778 56.9454,-0.21499 -0.1403,7.87491 -0.311,15.75971 -0.4781,23.62781 m -1.4763,-22.41248 c -0.2857,23.67834 0.138,47.808 0.8176,72.0235 m -2.5287,-14.47886 c -0.2022,7.69463 -0.3004,15.38047 -0.3273,23.04494 -17.1412,-0.24244 -33.9379,-0.58806 -50.73571,-1.17046 m 18.69521,0.81745 c -19.94503,0.41323 -40.4437,0.45451 -60.85055,0.59217 0.0547,-11.11044 0.13677,-22.1922 0.35087,-33.1693 m -2.5614,24.54602 c -0.46448,-26.13895 0.58084,-51.97852 2.31783,-78.21297 2.66487,-0.0461 5.33623,-0.0959 8.01335,-0.15009 m -9.12806,17.81744 c -0.0879,-4.60964 -0.12908,-9.27209 -0.12889,-13.98262 20.83299,-0.097 42.48372,-1.14303 64.49675,-2.72214 m -10.15682,0.17759 c 12.96842,0.003 26.28072,-0.0411 39.82672,-0.13166 0.3064,11.61532 0.7962,23.19419 1.3927,34.73716 m 2.2957,-16.69099 c 0.2653,21.65954 -0.1934,43.94718 -1.0427,66.70455 -1.6878,0.0724 -3.3777,0.14731 -5.0697,0.22482 m 6.6984,-8.37624 c 0.053,3.3456 0.093,6.67597 0.1214,9.99218 -27.1761,0.0647 -55.17205,-0.84214 -83.07395,-2.10928 m 25.38274,-1.74657 c -13.26862,0.36255 -26.30137,0.56394 -39.17261,0.77443 0.31607,-16.93718 0.91048,-33.85867 1.61492,-50.37925 m -1.28574,26.48963 c 0.55991,-18.80319 0.49105,-37.84105 0.33148,-56.95907 8.35735,-0.0668 16.69678,-0.14951 25.06552,-0.23446 m -23.20474,-2.82634 c 30.87085,0.471 60.14008,-0.38469 89.87628,-1.42958 m -45.55289,0.91385 c 15.41789,0.0849 30.68029,0.48963 45.99819,1.26807 0.2059,13.44972 0.4517,27.16845 0.8665,41.18914 m 2.0012,-24.8496 c -0.5075,22.75044 -0.7117,45.35932 -1.2778,68.67566 -2.4638,0.13187 -4.9318,0.27211 -7.405,0.42179 m 8.1597,-9.42874 c 0.011,2.95304 0.013,5.9147 0.01,8.8838 -23.3833,-0.25801 -47.24912,-0.0668 -71.46526,0.019 m 18.87864,-0.52065 c -15.08463,0.25197 -29.87371,0.4029 -44.45678,0.60339 0.36745,-15.41587 0.96042,-30.77747 1.67639,-45.9123 m 0.95441,25.81149 c 0.2423,-20.42721 0.19425,-41.67271 0.13884,-63.44508 11.71954,-0.6184 23.4367,-1.40685 35.20338,-2.31191 m -29.76731,0.46319 c 29.80141,0.42529 59.78959,0.95449 90.11409,2.60882 0.057,3.08627 0.1171,6.18342 0.1806,9.2924"
       id="rect3764-8-5-32"
       inkscape:connector-curvature="0"
       inkscape:path-effect="#path-effect3785-3-8-1"
       inkscape:original-d="m 946.31186,509.58085 96.08524,0 0,83.71307 -96.08524,0 z" />
    <text
       xml:space="preserve"
       style="font-size:18px;font-style:normal;font-variant:normal;font-weight:normal;font-stretch:normal;text-align:start;line-height:125%;letter-spacing:0px;word-spacing:0px;writing-mode:lr-tb;text-anchor:start;fill:#000000;fill-opacity:1;stroke:none;font-family:Verdana;-inkscape-font-specification:Verdana"
       x="962.53003"
       y="547.2843"
       id="text3791-5-0-81"
       sodipodi:linespacing="125%"><tspan
         id="tspan4688-26"
         sodipodi:role="line"
         x="962.53003"
         y="547.2843">Merge</tspan><tspan
         sodipodi:role="line"
         x="962.53003"
         y="569.7843"
         id="tspan5589">BAM</tspan></text>
    <text
       xml:space="preserve"
       style="font-size:28px;font-style:normal;font-variant:normal;font-weight:normal;font-stretch:normal;text-align:start;line-height:125%;letter-spacing:0px;word-spacing:0px;writing-mode:lr-tb;text-anchor:start;fill:#000000;fill-opacity:1;stroke:none;font-family:Georgia;-inkscape-font-specification:Georgia"
       x="224.21428"
       y="286.00504"
       id="text3095"
       sodipodi:linespacing="125%"><tspan
         sodipodi:role="line"
         id="tspan3097"
         x="224.21428"
         y="286.00504">Heterogeneous cluster creation during variant calling</tspan></text>
    <g
       id="g4864"
       transform="matrix(0.91067344,0,0,0.83024931,-64.492256,-69.929299)">
      <g
         word-spacing="normal"
         letter-spacing="normal"
         font-size-adjust="none"
         font-stretch="normal"
         font-weight="normal"
         font-variant="normal"
         font-style="normal"
         stroke-miterlimit="10.433"
         xml:space="preserve"
         transform="matrix(0.53023437,0,0,-0.53023437,-92.791015,789.74992)"
         id="g4866"
         style="font-style:normal;font-variant:normal;font-weight:normal;font-stretch:normal;letter-spacing:normal;word-spacing:normal;text-anchor:start;fill:none;stroke:#000000;stroke-linecap:butt;stroke-linejoin:miter;stroke-miterlimit:10.43299961;stroke-opacity:1;stroke-dasharray:none;stroke-dashoffset:0"><path
           id="path4868"
           d="m 471.17,427.95 -0.01,-0.04 -0.02,-0.05 -0.01,-0.04 -0.01,-0.05 -0.02,-0.05 -0.01,-0.06 -0.02,-0.05 -0.01,-0.05 -0.03,-0.11 -0.03,-0.11 -0.03,-0.12 -0.02,-0.1 -0.02,-0.06 -0.01,-0.05 -0.01,-0.05 -0.01,-0.05 -0.01,-0.05 -0.01,-0.04 -0.01,-0.05 -0.01,-0.04 -0.01,-0.03 0,-0.04 -0.01,-0.03 0,-0.03 -0.01,-0.02 0,-0.02 0,-0.01 0,-0.01 0,-0.01 0,0 c 0,-0.77 0.62,-1.11 1.19,-1.11 0.62,0 1.17,0.45 1.36,0.76 0.17,0.32 0.45,1.43 0.62,2.16 0.17,0.66 0.55,2.27 0.77,3.14 0.2,0.77 0.42,1.53 0.59,2.33 0.37,1.44 0.45,1.7 1.45,3.14 0.99,1.39 2.63,3.2 5.24,3.2 2.01,0 2.04,-1.78 2.04,-2.44 0,-2.09 -1.48,-5.95 -2.04,-7.42 -0.39,-0.98 -0.53,-1.29 -0.53,-1.89 0,-1.84 1.54,-2.98 3.31,-2.98 3.48,0 5.01,4.79 5.01,5.33 0,0.45 -0.45,0.45 -0.54,0.45 -0.5,0 -0.53,-0.2 -0.68,-0.59 -0.79,-2.79 -2.29,-4.22 -3.68,-4.22 -0.74,0 -0.88,0.48 -0.88,1.22 0,0.79 0.17,1.25 0.8,2.82 0.42,1.08 1.86,4.77 1.86,6.72 0,3.39 -2.69,3.97 -4.53,3.97 -2.89,0 -4.85,-1.76 -5.89,-3.16 -0.25,2.4 -2.3,3.16 -3.74,3.16 -1.5,0 -2.29,-1.08 -2.75,-1.87 -0.76,-1.29 -1.25,-3.29 -1.25,-3.46 0,-0.45 0.49,-0.45 0.6,-0.45 0.48,0 0.51,0.11 0.76,1.05 0.52,2.06 1.19,3.76 2.55,3.76 0.91,0 1.14,-0.76 1.14,-1.7 0,-0.67 -0.31,-1.95 -0.56,-2.89 -0.24,-0.95 -0.58,-2.38 -0.77,-3.14 z"
           inkscape:connector-curvature="0"
           style="fill:#000000;stroke-width:0" /><polyline
           id="polyline4870"
           points="462,418 497.4,418 497.4,420.04 462,420.04 "
           style="fill:#000000;fill-rule:nonzero;stroke-width:0" /><path
           id="path4872"
           d="m 476.64,391.87 -0.01,-0.07 -0.02,-0.07 -0.02,-0.07 -0.02,-0.08 -0.01,-0.07 -0.02,-0.08 -0.04,-0.16 -0.04,-0.16 -0.04,-0.16 -0.04,-0.16 -0.02,-0.08 -0.02,-0.07 -0.02,-0.08 -0.02,-0.07 -0.02,-0.07 -0.01,-0.07 -0.02,-0.07 -0.01,-0.06 -0.02,-0.06 -0.01,-0.06 -0.01,-0.05 -0.01,-0.05 -0.01,-0.05 -0.01,-0.04 0,-0.03 -0.01,-0.03 0,-0.03 0,-0.02 c 0,-0.76 0.63,-1.1 1.17,-1.1 0.64,0 1.19,0.45 1.36,0.76 0.19,0.31 0.45,1.42 0.64,2.16 0.17,0.65 0.55,2.26 0.77,3.14 0.2,0.76 0.4,1.53 0.59,2.33 0.38,1.5 0.38,1.56 1.08,2.65 1.11,1.71 2.86,3.69 5.56,3.69 1.96,0 2.06,-1.61 2.06,-2.44 0,-2.09 -1.5,-5.95 -2.06,-7.42 -0.37,-0.98 -0.51,-1.3 -0.51,-1.89 0,-1.84 1.53,-2.98 3.31,-2.98 3.48,0 5.01,4.79 5.01,5.32 0,0.46 -0.45,0.46 -0.56,0.46 -0.48,0 -0.51,-0.21 -0.65,-0.6 -0.8,-2.78 -2.3,-4.22 -3.69,-4.22 -0.74,0 -0.88,0.49 -0.88,1.22 0,0.8 0.18,1.25 0.8,2.83 0.42,1.08 1.84,4.77 1.84,6.72 0,0.56 0,2.03 -1.28,3.03 -0.59,0.45 -1.61,0.94 -3.25,0.94 -3.12,0 -5.04,-2.05 -6.15,-3.52 -0.28,2.97 -2.77,3.52 -4.53,3.52 -2.9,0 -4.85,-1.77 -5.9,-3.16 -0.25,2.39 -2.29,3.16 -3.73,3.16 -1.5,0 -2.3,-1.08 -2.75,-1.88 -0.77,-1.28 -1.25,-3.28 -1.25,-3.45 0,-0.45 0.48,-0.45 0.59,-0.45 0.49,0 0.52,0.11 0.77,1.04 0.52,2.07 1.19,3.77 2.55,3.77 0.9,0 1.14,-0.77 1.14,-1.7 0,-0.68 -0.32,-1.96 -0.57,-2.89 -0.23,-0.96 -0.57,-2.38 -0.76,-3.14 l -1.11,-4.47 c -0.14,-0.44 -0.34,-1.32 -0.34,-1.43 0,-0.76 0.62,-1.1 1.18,-1.1 0.63,0 1.18,0.45 1.36,0.76 0.17,0.31 0.46,1.42 0.63,2.16 0.17,0.65 0.54,2.26 0.76,3.14 0.21,0.76 0.43,1.53 0.6,2.33 0.37,1.43 0.45,1.7 1.45,3.14 0.98,1.39 2.63,3.2 5.23,3.2 2.02,0 2.05,-1.78 2.05,-2.44 0,-0.87 -0.09,-1.33 -0.59,-3.28 z"
           inkscape:connector-curvature="0"
           style="fill:#000000;stroke-width:0" /><path
           id="path4874"
           d="m 524.97,423.34 v -13.36 c 0,-2.23 -0.55,-2.23 -3.9,-2.23 v -1.55 c 1.75,0.05 4.28,0.16 5.63,0.16 1.3,0 3.89,-0.11 5.58,-0.16 v 1.55 c -3.33,0 -3.88,0 -3.88,2.23 v 9.17 c 0,5.19 3.53,7.97 6.72,7.97 3.14,0 3.69,-2.69 3.69,-5.53 v -11.61 c 0,-2.23 -0.55,-2.23 -3.89,-2.23 v -1.55 c 1.75,0.05 4.3,0.16 5.64,0.16 1.29,0 3.87,-0.11 5.58,-0.16 v 1.55 c -3.35,0 -3.89,0 -3.89,2.23 v 9.17 c 0,5.19 3.54,7.97 6.73,7.97 3.14,0 3.69,-2.69 3.69,-5.53 v -11.61 c 0,-2.23 -0.55,-2.23 -3.89,-2.23 v -1.55 c 1.73,0.05 4.28,0.16 5.62,0.16 1.3,0 3.89,-0.11 5.58,-0.16 v 1.55 c -2.58,0 -3.83,0 -3.88,1.5 v 9.51 c 0,4.28 0,5.83 -1.54,7.61 -0.71,0.86 -2.34,1.84 -5.24,1.84 -4.18,0 -6.37,-2.98 -7.22,-4.87 -0.7,4.33 -4.38,4.87 -6.62,4.87 -3.64,0 -5.98,-2.14 -7.38,-5.21 v 5.21 l -7.03,-0.54 v -1.55 c 3.49,0 3.9,-0.34 3.9,-2.78 z"
           inkscape:connector-curvature="0"
           style="fill:#000000;stroke-width:0" /><path
           id="path4876"
           d="m 577.59,409.98 0.03,-0.19 0.03,-0.18 0.03,-0.19 0.04,-0.18 0.05,-0.19 0.06,-0.18 0.06,-0.18 0.07,-0.18 0.07,-0.18 0.08,-0.17 0.09,-0.18 0.1,-0.16 0.1,-0.16 0.1,-0.16 0.12,-0.16 0.12,-0.14 0.12,-0.14 0.13,-0.14 0.14,-0.13 0.15,-0.12 0.15,-0.12 0.15,-0.1 0.17,-0.1 0.17,-0.09 0.17,-0.08 0.18,-0.07 0.19,-0.06 0.19,-0.05 0.2,-0.04 0.21,-0.03 0.21,-0.02 0.21,-0.01 c 1.04,0 4.08,0.71 4.08,4.74 v 2.78 h -1.25 v -2.78 c 0,-2.89 -1.23,-3.19 -1.79,-3.19 -1.64,0 -1.85,2.23 -1.85,2.48 v 9.97 c 0,2.1 0,4.03 -1.78,5.88 -1.95,1.93 -4.44,2.73 -6.83,2.73 -4.09,0 -7.53,-2.33 -7.53,-5.62 0,-1.49 1,-2.35 2.3,-2.35 1.39,0 2.29,1 2.29,2.3 0,0.59 -0.24,2.23 -2.54,2.3 1.34,1.73 3.78,2.28 5.37,2.28 2.46,0 5.28,-1.94 5.28,-6.38 v -1.84 -1.05 -4.98 c 0,-4.74 -3.57,-6.42 -5.82,-6.42 -2.44,0 -4.49,1.75 -4.49,4.23 0,2.73 2.1,6.88 10.31,7.17 h 0 v 1.05 c -2.53,-0.14 -6.01,-0.3 -9.15,-1.8 -3.74,-1.69 -4.99,-4.28 -4.99,-6.47 0,-4.03 4.83,-5.28 7.97,-5.28 3.3,0 5.58,1.99 6.53,4.33 z"
           inkscape:connector-curvature="0"
           style="fill:#000000;stroke-width:0" /><path
           id="path4878"
           d="m 591.78,417.06 0.01,0.38 0.01,0.36 0.01,0.36 0.02,0.35 0.03,0.34 0.03,0.34 0.03,0.32 0.05,0.32 0.04,0.31 0.05,0.3 0.06,0.29 0.06,0.29 0.13,0.55 0.16,0.51 0.16,0.49 0.19,0.46 0.19,0.43 0.21,0.4 0.22,0.38 0.23,0.35 0.24,0.32 0.25,0.3 0.26,0.28 0.26,0.26 0.27,0.23 0.28,0.21 0.28,0.19 0.28,0.16 0.28,0.15 0.28,0.13 0.29,0.12 0.28,0.09 0.28,0.08 0.27,0.06 0.27,0.05 0.27,0.03 0.26,0.02 0.25,0.01 c 0.44,0 3.58,-0.05 5.33,-1.85 -2.05,-0.15 -2.35,-1.64 -2.35,-2.29 0,-1.3 0.9,-2.3 2.3,-2.3 1.28,0 2.28,0.86 2.28,2.34 0,3.39 -3.78,5.33 -7.62,5.33 -6.22,0 -10.81,-5.37 -10.81,-11.55 0,-6.37 4.93,-11.31 10.71,-11.31 6.67,0 8.27,5.99 8.27,6.47 0,0.5 -0.5,0.5 -0.64,0.5 -0.46,0 -0.55,-0.19 -0.66,-0.5 -1.43,-4.62 -4.67,-5.22 -6.51,-5.22 -2.64,0 -7.04,2.14 -7.04,10.16 z"
           inkscape:connector-curvature="0"
           style="fill:#000000;stroke-width:0" /><path
           id="path4880"
           d="m 612.08,409.98 0,-0.1 0,-0.1 -0.01,-0.19 -0.01,-0.18 -0.01,-0.17 -0.02,-0.15 -0.02,-0.15 -0.03,-0.13 -0.04,-0.12 -0.04,-0.11 -0.05,-0.11 -0.06,-0.09 -0.06,-0.09 -0.07,-0.08 -0.08,-0.07 -0.09,-0.06 -0.1,-0.05 -0.11,-0.05 -0.12,-0.05 -0.13,-0.03 -0.14,-0.04 -0.15,-0.02 -0.17,-0.03 -0.17,-0.01 -0.1,-0.01 -0.09,-0.01 -0.1,-0.01 -0.11,0 -0.1,-0.01 -0.11,0 -0.11,0 -0.12,-0.01 -0.12,0 -0.13,0 -0.12,0 -0.13,0 -0.14,0 -0.14,0 -0.14,0 -0.15,0 -0.15,0 -0.15,0 v -1.55 c 1.75,0.05 4.28,0.16 5.62,0.16 1.3,0 3.89,-0.11 5.58,-0.16 v 1.55 c -3.33,0 -3.87,0 -3.87,2.23 v 9.17 c 0,5.19 3.53,7.97 6.71,7.97 3.15,0 3.69,-2.69 3.69,-5.53 v -11.61 c 0,-2.23 -0.54,-2.23 -3.89,-2.23 v -1.55 c 1.75,0.05 4.3,0.16 5.64,0.16 1.3,0 3.88,-0.11 5.58,-0.16 v 1.55 c -2.59,0 -3.84,0 -3.89,1.5 v 9.51 c 0,4.28 0,5.83 -1.55,7.61 -0.69,0.86 -2.34,1.84 -5.22,1.84 -4.18,0 -6.39,-2.98 -7.23,-4.87 v 17.44 l -7.17,-0.55 v -1.55 c 3.48,0 3.89,-0.34 3.89,-2.79 z"
           inkscape:connector-curvature="0"
           style="fill:#000000;stroke-width:0" /><path
           id="path4882"
           d="m 643.12,428.21 -6.96,-0.54 v -1.55 c 3.23,0 3.68,-0.3 3.68,-2.73 v -13.41 c 0,-2.23 -0.54,-2.23 -3.89,-2.23 v -1.55 c 1.6,0.05 4.28,0.16 5.49,0.16 1.75,0 3.48,-0.11 5.18,-0.16 v 1.55 c -3.29,0 -3.5,0.25 -3.5,2.18 z"
           inkscape:connector-curvature="0"
           style="fill:#000000;stroke-width:0" /><path
           id="path4884"
           d="m 643.33,436.89 -0.01,0.14 -0.01,0.15 -0.01,0.14 -0.03,0.14 -0.03,0.13 -0.04,0.13 -0.04,0.13 -0.05,0.12 -0.05,0.12 -0.06,0.12 -0.07,0.11 -0.07,0.1 -0.08,0.1 -0.08,0.1 -0.08,0.1 -0.09,0.08 -0.09,0.09 -0.1,0.08 -0.1,0.07 -0.11,0.07 -0.1,0.07 -0.11,0.06 -0.12,0.05 -0.11,0.05 -0.12,0.04 -0.12,0.04 -0.12,0.03 -0.13,0.03 -0.13,0.02 -0.12,0.01 -0.13,0.01 -0.13,0.01 c -1.55,0 -2.64,-1.35 -2.64,-2.64 0,-1.35 1.09,-2.64 2.64,-2.64 1.39,0 2.64,1.04 2.64,2.64 z"
           inkscape:connector-curvature="0"
           style="fill:#000000;stroke-width:0" /><path
           id="path4886"
           d="m 653.59,423.34 v -13.36 c 0,-2.23 -0.54,-2.23 -3.89,-2.23 v -1.55 c 1.75,0.05 4.28,0.16 5.63,0.16 1.29,0 3.89,-0.11 5.58,-0.16 v 1.55 c -3.33,0 -3.88,0 -3.88,2.23 v 9.17 c 0,5.19 3.53,7.97 6.72,7.97 3.14,0 3.69,-2.69 3.69,-5.53 v -11.61 c 0,-2.23 -0.55,-2.23 -3.89,-2.23 v -1.55 c 1.75,0.05 4.29,0.16 5.64,0.16 1.29,0 3.87,-0.11 5.58,-0.16 v 1.55 c -2.6,0 -3.85,0 -3.89,1.5 v 9.51 c 0,4.28 0,5.83 -1.55,7.61 -0.69,0.86 -2.35,1.84 -5.22,1.84 -3.64,0 -5.99,-2.14 -7.38,-5.21 v 5.21 l -7.03,-0.54 v -1.55 c 3.49,0 3.89,-0.34 3.89,-2.78 z"
           inkscape:connector-curvature="0"
           style="fill:#000000;stroke-width:0" /><path
           id="path4888"
           d="m 681.36,417.71 0.05,1.05 c 0.29,7.42 4.48,8.66 6.18,8.66 5.13,0 5.63,-6.72 5.63,-8.66 h -11.81 l -0.05,-1.05 h 13.91 c 1.09,0 1.23,0 1.23,1.05 0,4.92 -2.69,9.75 -8.91,9.75 -5.78,0 -10.37,-5.12 -10.37,-11.36 0,-6.67 5.23,-11.5 10.97,-11.5 6.08,0 8.31,5.53 8.31,6.47 0,0.5 -0.39,0.61 -0.64,0.61 -0.45,0 -0.55,-0.3 -0.66,-0.7 -1.73,-5.13 -6.22,-5.13 -6.72,-5.13 -2.5,0 -4.48,1.49 -5.62,3.33 -1.5,2.39 -1.5,5.69 -1.5,7.48 z"
           inkscape:connector-curvature="0"
           style="fill:#000000;stroke-width:0" /><path
           id="path4890"
           d="m 708.27,415.87 0.11,-0.02 0.12,-0.02 0.15,-0.03 0.15,-0.04 0.17,-0.04 0.18,-0.04 0.19,-0.05 0.2,-0.06 0.2,-0.06 0.21,-0.07 0.22,-0.08 0.22,-0.08 0.22,-0.1 0.22,-0.1 0.22,-0.11 0.22,-0.12 0.22,-0.14 0.21,-0.14 0.2,-0.15 0.2,-0.16 0.19,-0.18 0.18,-0.19 0.17,-0.2 0.16,-0.21 0.14,-0.22 0.07,-0.12 0.06,-0.12 0.06,-0.13 0.05,-0.12 0.05,-0.14 0.04,-0.13 0.05,-0.14 0.03,-0.14 0.03,-0.15 0.03,-0.15 0.02,-0.16 0.01,-0.15 0.01,-0.17 0,-0.16 c 0,-2.53 -1.75,-4.53 -5.62,-4.53 -4.19,0 -5.99,2.84 -6.94,7.07 -0.14,0.64 -0.19,0.85 -0.69,0.85 -0.65,0 -0.65,-0.35 -0.65,-1.25 v -6.58 c 0,-0.84 0,-1.19 0.54,-1.19 0.25,0 0.3,0.05 1.25,1 0.1,0.1 0.1,0.19 1,1.14 2.19,-2.09 4.44,-2.14 5.49,-2.14 5.72,0 8.01,3.35 8.01,6.92 0,2.64 -1.5,4.14 -2.09,4.74 -1.64,1.59 -3.59,2 -5.69,2.39 -2.78,0.55 -6.12,1.2 -6.12,4.09 0,1.74 1.29,3.78 5.58,3.78 5.48,0 5.73,-4.48 5.82,-6.03 0.07,-0.45 0.5,-0.45 0.61,-0.45 0.64,0 0.64,0.25 0.64,1.2 v 5.03 c 0,0.85 0,1.19 -0.54,1.19 -0.25,0 -0.35,0 -1,-0.59 -0.14,-0.21 -0.64,-0.64 -0.85,-0.8 -1.89,1.39 -3.93,1.39 -4.68,1.39 -6.08,0 -7.97,-3.33 -7.97,-6.12 0,-1.74 0.79,-3.14 2.14,-4.24 1.59,-1.29 3,-1.59 6.58,-2.28 z"
           inkscape:connector-curvature="0"
           style="fill:#000000;stroke-width:0" /><path
           id="path4892"
           d="m 411.72,363.18 0.09,0.22 0.09,0.22 0.09,0.21 0.1,0.2 0.1,0.19 0.1,0.17 0.11,0.17 0.11,0.16 0.11,0.15 0.12,0.14 0.12,0.14 0.12,0.12 0.12,0.12 0.13,0.11 0.13,0.1 0.13,0.09 0.14,0.09 0.14,0.07 0.14,0.08 0.14,0.06 0.15,0.06 0.14,0.06 0.15,0.04 0.15,0.05 0.16,0.03 0.15,0.04 0.16,0.02 0.15,0.03 0.16,0.01 0.16,0.02 0.17,0.01 0.16,0 v 1.55 c -1.11,-0.09 -2.55,-0.14 -3.64,-0.14 -1.45,0 -3.69,0.09 -4.64,0.14 v -1.55 c 1.8,-0.04 2.89,-0.93 2.89,-2.39 0,-0.29 0,-0.39 -0.25,-1.04 l -4.53,-12.75 -4.94,13.9 c -0.19,0.6 -0.25,0.69 -0.25,0.94 0,1.34 1.95,1.34 2.95,1.34 v 1.55 c -1.45,-0.05 -3.98,-0.14 -5.18,-0.14 -1.5,0 -2.94,0.05 -4.44,0.14 v -1.55 c 1.84,0 2.64,-0.09 3.14,-0.73 0.25,-0.31 0.8,-1.8 1.14,-2.75 l -4.28,-12.05 -4.74,13.3 c -0.25,0.59 -0.25,0.7 -0.25,0.89 0,1.34 1.96,1.34 2.94,1.34 v 1.55 c -1.48,-0.05 -4.28,-0.14 -5.42,-0.14 -0.2,0 -2.84,0.05 -4.64,0.14 v -1.55 c 2.5,0 3.09,-0.14 3.69,-1.73 l 6.28,-17.64 c 0.25,-0.7 0.4,-1.1 1.05,-1.1 0.65,0 0.75,0.3 1,1 l 5.03,14.1 5.07,-14.14 c 0.21,-0.56 0.35,-0.96 1,-0.96 0.65,0 0.8,0.46 1,0.96 z"
           inkscape:connector-curvature="0"
           style="fill:#000000;stroke-width:0" /><path
           id="path4894"
           d="m 425.69,368.46 -6.97,-0.55 v -1.55 c 3.24,0 3.69,-0.29 3.69,-2.73 v -13.41 c 0,-2.23 -0.55,-2.23 -3.89,-2.23 v -1.55 c 1.59,0.05 4.28,0.16 5.48,0.16 1.75,0 3.49,-0.11 5.19,-0.16 v 1.55 c -3.3,0 -3.5,0.25 -3.5,2.19 z"
           inkscape:connector-curvature="0"
           style="fill:#000000;stroke-width:0" /><path
           id="path4896"
           d="m 425.89,377.13 0,0.15 -0.01,0.14 -0.02,0.14 -0.02,0.14 -0.03,0.13 -0.04,0.13 -0.04,0.13 -0.05,0.12 -0.06,0.12 -0.06,0.12 -0.06,0.11 -0.07,0.11 -0.08,0.1 -0.08,0.1 -0.08,0.09 -0.09,0.09 -0.1,0.08 -0.09,0.08 -0.1,0.08 -0.11,0.06 -0.11,0.07 -0.11,0.06 -0.11,0.05 -0.12,0.05 -0.12,0.04 -0.12,0.04 -0.12,0.04 -0.12,0.02 -0.13,0.02 -0.13,0.02 -0.13,0.01 -0.13,0 c -1.54,0 -2.64,-1.34 -2.64,-2.64 0,-1.34 1.1,-2.64 2.64,-2.64 1.39,0 2.64,1.05 2.64,2.64 z"
           inkscape:connector-curvature="0"
           style="fill:#000000;stroke-width:0" /><path
           id="path4898"
           d="m 439.3,366.36 h 7.13 v 1.55 h -7.13 v 9.17 h -1.25 C 438,373 436.5,367.66 431.63,367.47 v -1.11 h 4.23 v -13.75 c 0,-6.12 4.63,-6.72 6.43,-6.72 3.53,0 4.93,3.54 4.93,6.72 v 2.85 h -1.25 v -2.74 c 0,-3.68 -1.5,-5.58 -3.34,-5.58 -3.33,0 -3.33,4.54 -3.33,5.38 z"
           inkscape:connector-curvature="0"
           style="fill:#000000;stroke-width:0" /><path
           id="path4900"
           d="m 455.48,350.22 0,-0.1 0,-0.1 -0.01,-0.19 -0.01,-0.18 -0.01,-0.16 -0.02,-0.16 -0.03,-0.14 -0.03,-0.14 -0.03,-0.12 -0.04,-0.11 -0.05,-0.11 -0.06,-0.09 -0.06,-0.09 -0.07,-0.07 -0.09,-0.07 -0.09,-0.07 -0.09,-0.05 -0.11,-0.05 -0.12,-0.04 -0.13,-0.04 -0.14,-0.03 -0.16,-0.03 -0.16,-0.02 -0.18,-0.02 -0.09,-0.01 -0.1,-0.01 -0.09,0 -0.11,-0.01 -0.1,0 -0.11,-0.01 -0.12,0 -0.11,0 -0.12,-0.01 -0.13,0 -0.12,0 -0.14,0 -0.13,0 -0.14,0 -0.14,0 -0.15,0 -0.15,0 -0.15,0 v -1.55 c 1.75,0.05 4.28,0.16 5.62,0.16 1.3,0 3.89,-0.11 5.58,-0.16 v 1.55 c -3.33,0 -3.88,0 -3.88,2.23 v 9.17 c 0,5.19 3.54,7.97 6.72,7.97 3.14,0 3.69,-2.68 3.69,-5.53 v -11.61 c 0,-2.23 -0.55,-2.23 -3.89,-2.23 v -1.55 c 1.75,0.05 4.3,0.16 5.64,0.16 1.3,0 3.88,-0.11 5.58,-0.16 v 1.55 c -2.6,0 -3.85,0 -3.89,1.5 V 359 c 0,4.29 0,5.83 -1.55,7.61 -0.69,0.86 -2.34,1.85 -5.22,1.85 -4.19,0 -6.39,-2.99 -7.23,-4.88 v 17.44 l -7.17,-0.55 v -1.54 c 3.48,0 3.89,-0.35 3.89,-2.8 z"
           inkscape:connector-curvature="0"
           style="fill:#000000;stroke-width:0" /><path
           id="path4902"
           d="m 498.66,349.38 -0.01,-0.07 -0.02,-0.08 -0.01,-0.07 -0.02,-0.08 -0.04,-0.16 -0.03,-0.16 -0.04,-0.16 -0.04,-0.16 -0.04,-0.16 -0.03,-0.16 -0.02,-0.08 -0.02,-0.07 -0.01,-0.07 -0.02,-0.07 -0.01,-0.07 -0.02,-0.07 -0.01,-0.06 -0.01,-0.06 -0.01,-0.05 -0.01,-0.06 -0.01,-0.04 -0.01,-0.05 0,-0.04 -0.01,-0.03 0,-0.04 0,-0.02 c 0,-0.89 0.7,-1.35 1.44,-1.35 0.61,0 1.5,0.4 1.84,1.4 0.06,0.1 0.66,2.43 0.96,3.68 l 1.09,4.49 c 0.3,1.09 0.59,2.18 0.84,3.34 0.21,0.84 0.61,2.28 0.66,2.49 0.75,1.54 3.39,6.07 8.11,6.07 2.25,0 2.7,-1.84 2.7,-3.48 0,-1.25 -0.36,-2.64 -0.75,-4.14 l -1.39,-5.78 -1,-3.78 c -0.2,-1 -0.66,-2.69 -0.66,-2.94 0,-0.89 0.71,-1.35 1.46,-1.35 1.54,0 1.84,1.25 2.23,2.85 0.71,2.78 2.55,10.06 3,12 0.14,0.65 2.78,6.62 8.22,6.62 2.14,0 2.69,-1.68 2.69,-3.48 0,-2.84 -2.1,-8.52 -3.1,-11.16 -0.45,-1.2 -0.64,-1.75 -0.64,-2.75 0,-2.33 1.74,-4.08 4.08,-4.08 4.69,0 6.53,7.27 6.53,7.68 0,0.5 -0.45,0.5 -0.59,0.5 -0.5,0 -0.5,-0.16 -0.75,-0.91 -0.75,-2.64 -2.34,-6.17 -5.08,-6.17 -0.86,0 -1.2,0.5 -1.2,1.64 0,1.25 0.45,2.45 0.89,3.55 0.95,2.57 3.05,8.11 3.05,10.95 0,3.23 -2,5.33 -5.74,5.33 -3.73,0 -6.26,-2.19 -8.11,-4.83 -0.06,0.66 -0.2,2.34 -1.61,3.53 -1.23,1.05 -2.83,1.3 -4.08,1.3 -4.48,0 -6.92,-3.19 -7.76,-4.33 -0.25,2.84 -2.34,4.33 -4.59,4.33 -2.29,0 -3.24,-1.94 -3.69,-2.83 -0.89,-1.75 -1.55,-4.69 -1.55,-4.84 0,-0.5 0.5,-0.5 0.61,-0.5 0.5,0 0.55,0.06 0.84,1.15 0.85,3.53 1.85,5.92 3.64,5.92 0.8,0 1.55,-0.39 1.55,-2.28 0,-1.04 -0.15,-1.61 -0.8,-4.19 z"
           inkscape:connector-curvature="0"
           style="fill:#000000;stroke-width:0" /><path
           id="path4904"
           d="m 560.46,357.3 0,0.38 0.01,0.37 0.02,0.35 0.02,0.35 0.02,0.35 0.03,0.33 0.04,0.33 0.04,0.31 0.05,0.31 0.05,0.3 0.06,0.3 0.06,0.28 0.13,0.55 0.15,0.52 0.17,0.48 0.18,0.46 0.2,0.43 0.21,0.4 0.22,0.38 0.23,0.35 0.24,0.33 0.25,0.3 0.26,0.27 0.26,0.26 0.27,0.23 0.27,0.21 0.28,0.19 0.28,0.17 0.29,0.15 0.28,0.13 0.28,0.11 0.28,0.09 0.28,0.08 0.28,0.06 0.27,0.05 0.26,0.03 0.26,0.02 0.26,0.01 c 0.43,0 3.57,-0.05 5.32,-1.84 -2.04,-0.16 -2.34,-1.64 -2.34,-2.3 0,-1.3 0.89,-2.3 2.3,-2.3 1.28,0 2.28,0.86 2.28,2.35 0,3.39 -3.78,5.32 -7.63,5.32 -6.22,0 -10.81,-5.37 -10.81,-11.54 0,-6.38 4.94,-11.32 10.72,-11.32 6.67,0 8.26,5.99 8.26,6.47 0,0.5 -0.5,0.5 -0.64,0.5 -0.45,0 -0.54,-0.18 -0.65,-0.5 -1.44,-4.62 -4.67,-5.22 -6.52,-5.22 -2.64,0 -7.03,2.15 -7.03,10.16 z"
           inkscape:connector-curvature="0"
           style="fill:#000000;stroke-width:0" /><path
           id="path4906"
           d="m 600.18,357.1 -0.01,0.59 -0.05,0.59 -0.07,0.58 -0.1,0.57 -0.12,0.56 -0.15,0.55 -0.17,0.54 -0.2,0.53 -0.23,0.51 -0.24,0.51 -0.27,0.48 -0.29,0.48 -0.3,0.46 -0.33,0.44 -0.35,0.42 -0.37,0.41 -0.38,0.38 -0.4,0.37 -0.42,0.35 -0.43,0.33 -0.45,0.3 -0.46,0.28 -0.47,0.26 -0.49,0.24 -0.5,0.21 -0.51,0.18 -0.52,0.16 -0.53,0.13 -0.54,0.11 -0.55,0.07 -0.55,0.05 -0.57,0.01 -0.04,-1.09 c 2.18,0 4.33,-1.09 5.62,-3.23 1.3,-2.14 1.3,-5.04 1.3,-6.93 0,-1.79 0,-4.48 -1.09,-6.67 -1.1,-2.25 -3.29,-3.69 -5.79,-3.69 h 0 c -2.14,0 -4.32,1.05 -5.67,3.33 -1.25,2.21 -1.25,5.24 -1.25,7.03 0,1.94 0,4.63 1.19,6.83 1.36,2.28 3.69,3.33 5.69,3.33 l 0.04,1.09 c -6.21,0 -11.06,-5.42 -11.06,-11.65 0,-6.42 5.19,-11.21 11.02,-11.21 6.03,0 11.06,4.88 11.06,11.21 z"
           inkscape:connector-curvature="0"
           style="fill:#000000;stroke-width:0" /><path
           id="path4908"
           d="m 609.98,362.99 v 5.47 l -6.92,-0.55 v -1.55 c 3.48,0 3.89,-0.34 3.89,-2.78 v -13.36 c 0,-2.23 -0.55,-2.23 -3.89,-2.23 v -1.55 c 1.95,0.05 4.28,0.16 5.69,0.16 1.98,0 4.32,0 6.32,-0.16 v 1.55 h -1.04 c -3.69,0 -3.8,0.55 -3.8,2.34 V 358 c 0,4.93 2.09,9.36 5.89,9.36 0.35,0 0.44,0 0.55,-0.04 -0.16,-0.05 -1.16,-0.64 -1.16,-1.94 0,-1.41 1.05,-2.14 2.16,-2.14 0.89,0 2.14,0.59 2.14,2.19 0,1.59 -1.55,3.03 -3.69,3.03 -3.64,0 -5.44,-3.33 -6.14,-5.47 z"
           inkscape:connector-curvature="0"
           style="fill:#000000;stroke-width:0" /><path
           id="path4910"
           d="m 626.76,357.96 0.04,1.04 c 0.3,7.43 4.49,8.66 6.19,8.66 5.13,0 5.63,-6.72 5.63,-8.66 H 626.8 l -0.04,-1.04 h 13.9 c 1.1,0 1.24,0 1.24,1.04 0,4.93 -2.69,9.75 -8.91,9.75 -5.78,0 -10.37,-5.12 -10.37,-11.36 0,-6.67 5.23,-11.5 10.97,-11.5 6.07,0 8.31,5.54 8.31,6.47 0,0.5 -0.39,0.61 -0.64,0.61 -0.46,0 -0.55,-0.29 -0.66,-0.7 -1.73,-5.13 -6.22,-5.13 -6.72,-5.13 -2.5,0 -4.48,1.49 -5.62,3.33 -1.5,2.39 -1.5,5.69 -1.5,7.49 z"
           inkscape:connector-curvature="0"
           style="fill:#000000;stroke-width:0" /><path
           id="path4912"
           d="m 653.66,356.11 0.12,-0.02 0.12,-0.02 0.14,-0.03 0.16,-0.04 0.17,-0.03 0.18,-0.05 0.19,-0.05 0.2,-0.06 0.2,-0.06 0.21,-0.07 0.22,-0.08 0.22,-0.08 0.22,-0.1 0.22,-0.1 0.22,-0.11 0.22,-0.12 0.21,-0.13 0.22,-0.15 0.2,-0.15 0.2,-0.16 0.19,-0.18 0.18,-0.18 0.17,-0.2 0.16,-0.22 0.14,-0.22 0.06,-0.12 0.07,-0.12 0.06,-0.12 0.05,-0.13 0.05,-0.13 0.04,-0.14 0.04,-0.14 0.04,-0.14 0.03,-0.15 0.03,-0.15 0.02,-0.15 0.01,-0.16 0.01,-0.16 0,-0.17 c 0,-2.53 -1.75,-4.53 -5.62,-4.53 -4.19,0 -5.99,2.84 -6.94,7.08 -0.14,0.64 -0.19,0.84 -0.69,0.84 -0.65,0 -0.65,-0.34 -0.65,-1.25 v -6.58 c 0,-0.84 0,-1.19 0.54,-1.19 0.25,0 0.3,0.05 1.25,1 0.1,0.1 0.1,0.19 1,1.15 2.19,-2.1 4.44,-2.15 5.49,-2.15 5.72,0 8.01,3.35 8.01,6.93 0,2.64 -1.5,4.14 -2.09,4.73 -1.64,1.59 -3.6,2 -5.69,2.39 -2.78,0.55 -6.12,1.2 -6.12,4.1 0,1.73 1.29,3.78 5.57,3.78 5.49,0 5.74,-4.49 5.83,-6.03 0.06,-0.46 0.5,-0.46 0.61,-0.46 0.64,0 0.64,0.25 0.64,1.21 v 5.03 c 0,0.84 0,1.18 -0.54,1.18 -0.25,0 -0.35,0 -1,-0.59 -0.15,-0.2 -0.65,-0.64 -0.85,-0.8 -1.89,1.39 -3.94,1.39 -4.69,1.39 -6.07,0 -7.96,-3.32 -7.96,-6.12 0,-1.74 0.79,-3.14 2.14,-4.24 1.59,-1.29 3,-1.59 6.57,-2.28 z"
           inkscape:connector-curvature="0"
           style="fill:#000000;stroke-width:0" /><path
           id="path4914"
           d="m 685.07,357.96 0.05,1.04 c 0.3,7.43 4.48,8.66 6.19,8.66 5.12,0 5.62,-6.72 5.62,-8.66 h -11.81 l -0.05,-1.04 h 13.91 c 1.09,0 1.24,0 1.24,1.04 0,4.93 -2.69,9.75 -8.91,9.75 -5.78,0 -10.38,-5.12 -10.38,-11.36 0,-6.67 5.24,-11.5 10.97,-11.5 6.08,0 8.32,5.54 8.32,6.47 0,0.5 -0.4,0.61 -0.65,0.61 -0.45,0 -0.54,-0.29 -0.65,-0.7 -1.74,-5.13 -6.22,-5.13 -6.72,-5.13 -2.5,0 -4.48,1.49 -5.63,3.33 -1.5,2.39 -1.5,5.69 -1.5,7.49 z"
           inkscape:connector-curvature="0"
           style="fill:#000000;stroke-width:0" /><path
           id="path4916"
           d="m 718.22,350.22 0.02,-0.18 0.03,-0.19 0.03,-0.19 0.04,-0.18 0.05,-0.19 0.06,-0.18 0.06,-0.18 0.07,-0.18 0.07,-0.18 0.09,-0.17 0.08,-0.17 0.1,-0.17 0.1,-0.16 0.1,-0.16 0.12,-0.15 0.12,-0.15 0.12,-0.14 0.14,-0.14 0.13,-0.13 0.15,-0.12 0.15,-0.11 0.16,-0.11 0.16,-0.1 0.17,-0.09 0.17,-0.08 0.18,-0.07 0.19,-0.06 0.19,-0.05 0.2,-0.04 0.21,-0.03 0.21,-0.02 0.21,-0.01 c 1.04,0 4.08,0.71 4.08,4.74 v 2.78 h -1.25 v -2.78 c 0,-2.89 -1.23,-3.19 -1.79,-3.19 -1.64,0 -1.85,2.24 -1.85,2.49 v 9.96 c 0,2.1 0,4.04 -1.78,5.88 -1.95,1.94 -4.44,2.73 -6.83,2.73 -4.09,0 -7.53,-2.32 -7.53,-5.62 0,-1.49 1,-2.34 2.3,-2.34 1.39,0 2.3,1 2.3,2.29 0,0.6 -0.25,2.24 -2.55,2.3 1.34,1.73 3.78,2.28 5.37,2.28 2.46,0 5.28,-1.94 5.28,-6.37 v -1.85 -1.05 -4.98 c 0,-4.73 -3.57,-6.42 -5.82,-6.42 -2.44,0 -4.49,1.75 -4.49,4.23 0,2.74 2.1,6.88 10.31,7.17 h 0 v 1.05 c -2.53,-0.14 -6.01,-0.3 -9.15,-1.8 -3.73,-1.68 -4.98,-4.28 -4.98,-6.46 0,-4.04 4.82,-5.29 7.96,-5.29 3.3,0 5.58,1.99 6.54,4.33 z"
           inkscape:connector-curvature="0"
           style="fill:#000000;stroke-width:0" /><path
           id="path4918"
           d="m 732.41,357.3 0,0.38 0.01,0.37 0.01,0.35 0.02,0.35 0.03,0.35 0.03,0.33 0.04,0.33 0.04,0.31 0.04,0.31 0.05,0.3 0.06,0.3 0.06,0.28 0.14,0.55 0.15,0.52 0.16,0.48 0.19,0.46 0.19,0.43 0.21,0.4 0.22,0.38 0.23,0.35 0.24,0.33 0.25,0.3 0.26,0.27 0.26,0.26 0.27,0.23 0.28,0.21 0.28,0.19 0.28,0.17 0.28,0.15 0.28,0.13 0.29,0.11 0.28,0.09 0.28,0.08 0.27,0.06 0.27,0.05 0.27,0.03 0.26,0.02 0.25,0.01 c 0.44,0 3.58,-0.05 5.33,-1.84 -2.05,-0.16 -2.35,-1.64 -2.35,-2.3 0,-1.3 0.9,-2.3 2.3,-2.3 1.28,0 2.28,0.86 2.28,2.35 0,3.39 -3.78,5.32 -7.62,5.32 -6.22,0 -10.81,-5.37 -10.81,-11.54 0,-6.38 4.93,-11.32 10.71,-11.32 6.68,0 8.27,5.99 8.27,6.47 0,0.5 -0.5,0.5 -0.64,0.5 -0.45,0 -0.55,-0.18 -0.66,-0.5 -1.43,-4.62 -4.67,-5.22 -6.51,-5.22 -2.64,0 -7.03,2.15 -7.03,10.16 z"
           inkscape:connector-curvature="0"
           style="fill:#000000;stroke-width:0" /><path
           id="path4920"
           d="m 752.7,350.22 0,-0.1 0,-0.1 -0.01,-0.19 -0.01,-0.18 -0.01,-0.16 -0.02,-0.16 -0.02,-0.14 -0.03,-0.14 -0.04,-0.12 -0.04,-0.11 -0.05,-0.11 -0.06,-0.09 -0.06,-0.09 -0.07,-0.07 -0.08,-0.07 -0.09,-0.07 -0.1,-0.05 -0.11,-0.05 -0.12,-0.04 -0.13,-0.04 -0.14,-0.03 -0.15,-0.03 -0.17,-0.02 -0.17,-0.02 -0.1,-0.01 -0.09,-0.01 -0.1,0 -0.1,-0.01 -0.11,0 -0.11,-0.01 -0.11,0 -0.12,0 -0.12,-0.01 -0.12,0 -0.13,0 -0.13,0 -0.14,0 -0.14,0 -0.14,0 -0.15,0 -0.15,0 -0.15,0 v -1.55 c 1.75,0.05 4.28,0.16 5.62,0.16 1.3,0 3.89,-0.11 5.58,-0.16 v 1.55 c -3.33,0 -3.87,0 -3.87,2.23 v 9.17 c 0,5.19 3.53,7.97 6.71,7.97 3.15,0 3.69,-2.68 3.69,-5.53 v -11.61 c 0,-2.23 -0.54,-2.23 -3.89,-2.23 v -1.55 c 1.75,0.05 4.3,0.16 5.64,0.16 1.3,0 3.88,-0.11 5.58,-0.16 v 1.55 c -2.59,0 -3.84,0 -3.89,1.5 V 359 c 0,4.29 0,5.83 -1.55,7.61 -0.68,0.86 -2.34,1.85 -5.21,1.85 -4.19,0 -6.4,-2.99 -7.24,-4.88 v 17.44 l -7.17,-0.55 v -1.54 c 3.48,0 3.89,-0.35 3.89,-2.8 z"
           inkscape:connector-curvature="0"
           style="fill:#000000;stroke-width:0" /></g>    </g>
  </g>
</svg>
