<?xml version="1.0" encoding="UTF-8" standalone="no"?>
<svg width="132px" height="100px" viewBox="0 0 132 100" version="1.1" xmlns="http://www.w3.org/2000/svg" xmlns:xlink="http://www.w3.org/1999/xlink" xmlns:sketch="http://www.bohemiancoding.com/sketch/ns">
    <!-- Generator: Sketch 3.3.1 (12002) - http://www.bohemiancoding.com/sketch -->
    <title>logo</title>
    <desc>Created with Sketch.</desc>
    <defs></defs>
    <g id="Page-1" stroke="none" stroke-width="1" fill="none" fill-rule="evenodd" sketch:type="MSPage">
        <g id="logo" sketch:type="MSArtboardGroup">
            <g sketch:type="MSLayerGroup">
                <g id="pipe" transform="translate(0.000000, 29.611111)" fill="#01579B" sketch:type="MSShapeGroup">
                    <rect id="Rectangle-1" x="0" y="0" width="10" height="41" rx="2"></rect>
                    <rect id="Rectangle-2" x="5" y="6" width="23" height="30"></rect>
                </g>
                <g id="pipe-flipped" transform="translate(118.000000, 50.000000) scale(-1, 1) translate(-118.000000, -50.000000) translate(104.000000, 29.500000)" fill="#01579B" sketch:type="MSShapeGroup">
                    <rect id="Rectangle-1" x="0" y="0" width="10" height="41" rx="2"></rect>
                    <rect id="Rectangle-2" x="5" y="6" width="23" height="30"></rect>
                </g>
                <ellipse id="Oval-3" fill="#01579B" sketch:type="MSShapeGroup" cx="66" cy="50" rx="50" ry="50"></ellipse>
                <g id="icon_15733-3" transform="translate(26.500000, 10.500000)" fill="#FFFFFF" sketch:type="MSShapeGroup">
                    <path d="M37.6492622,1.02077185 C36.7768522,1.16800691 36.0815422,1.83403358 35.8998222,2.69894321 C35.8597822,2.84309481 35.8359122,2.98955901 35.8266722,3.13679407 L33.8585522,10.2888721 C33.0600622,10.4391906 32.2346222,10.5910509 31.4530722,10.7999551 C30.5136722,11.0535694 29.6474222,11.418959 28.7557622,11.7488889 L22.7058722,6.34821432 C22.0259622,5.73229383 21.0303522,5.61512247 20.2272422,6.05682765 C17.7439922,7.46365481 15.4455422,9.14568049 13.3750122,11.0196514 C12.6850922,11.6486765 12.4779622,12.6515709 12.8645022,13.5010632 L16.2910022,20.7988346 C15.1791222,22.1424509 14.1704222,23.5847378 13.3026322,25.104882 L5.13832222,24.8127244 C4.18814222,24.7788064 3.32959222,25.3731427 3.02390222,26.2727412 C2.03830222,28.9037007 1.37687222,31.6341017 0.982632222,34.4462143 C0.848652222,35.3928356 1.35300222,36.3140183 2.22156222,36.7087007 L9.43877222,40.0650435 C9.46033222,41.7894667 9.62049222,43.5177442 9.94928222,45.2467926 L3.53441222,50.3553096 C2.79829222,50.9188114 2.50646222,51.8877877 2.80522222,52.7634894 C3.76541222,55.479244 5.05670222,57.9359881 6.52278222,60.2801862 C7.01481222,61.0672385 7.95421222,61.4480454 8.85588222,61.22912 L16.5828322,59.185559 C17.7131922,60.4991116 18.9806122,61.6754504 20.3011622,62.761598 L18.6241022,70.8626099 C18.4523922,71.7568123 18.8612622,72.6641195 19.6451222,73.1250963 C22.0644622,74.5511951 24.6747622,75.7522015 27.3720722,76.6279032 C28.2629622,76.913123 29.2354722,76.5870474 29.7775522,75.8254336 L34.3690622,69.255358 C36.0900122,69.5428904 37.8433022,69.6384775 39.6173822,69.6207477 L43.4065522,76.8452869 C43.8485322,77.6577778 44.7579022,78.099483 45.6672722,77.9399141 C46.8561522,77.7371768 48.0334822,77.5344395 49.2393022,77.2106765 C50.7970122,76.793639 52.3046722,76.2663679 53.7584322,75.6781985 C54.6562522,75.34056 55.2206622,74.4463575 55.1436622,73.4889442 L54.3413222,64.3657664 C54.2404522,63.1778647 53.1978722,62.2944543 52.0089922,62.3954375 C50.8216522,62.4956499 49.9400022,63.5401709 50.0401022,64.7303852 L50.0401022,64.7303852 L50.6969122,72.1738499 C49.8491422,72.4752578 49.0244722,72.814438 48.1459022,73.0495516 C47.5891922,73.1998701 47.0224722,73.2954573 46.4688422,73.4149412 L42.8244322,66.5550207 C42.4147922,65.8257832 41.6193822,65.3964119 40.7831622,65.4603936 C38.3938522,65.6045452 36.0569022,65.378682 33.7869422,64.8768494 C32.9245422,64.6756538 32.0282622,65.0225427 31.5269922,65.7525511 L27.2265422,71.8824632 C25.8490122,71.3598173 24.5176822,70.753918 23.2171522,70.0585985 L24.7479122,62.5419017 C24.9019122,61.7409738 24.5916022,60.922316 23.9463422,60.4251086 C22.0544522,59.0205941 20.3619922,57.3393393 18.9167022,55.4622849 C18.3777022,54.7877788 17.4883522,54.5002464 16.6567522,54.7330474 L9.51346222,56.6301442 C8.77965222,55.3443427 8.11129222,54.0122894 7.54534222,52.6162543 L13.5228522,47.8731269 C14.1688822,47.3458558 14.4522422,46.49328 14.2520422,45.6838726 C13.6884022,43.3072983 13.4266022,40.9723506 13.5228522,38.6782588 C13.5305522,37.8357042 13.0454522,37.0656109 12.2839222,36.7079299 L5.57799222,33.4965096 C5.85134222,32.0341802 6.28639222,30.5965185 6.74454222,29.1912331 L14.3259622,29.4101585 C15.1514022,29.4317427 15.9160122,28.9777037 16.2940822,28.2422993 C17.3443622,26.1509447 18.7018722,24.1628859 20.3034722,22.4037738 C20.8786622,21.76704 21.0218822,20.8504825 20.6676822,20.0688262 L17.5330122,13.354599 C18.6880122,12.3979565 19.8907522,11.5338178 21.1774222,10.7274938 L26.7907222,15.7627788 C27.4267422,16.340156 28.3422722,16.4835368 29.1238222,16.1281684 C30.2534122,15.6448365 31.3837722,15.2933225 32.6227022,14.9603091 C33.7184122,14.6673807 34.8364522,14.3729106 35.9029022,14.2303007 C36.7352722,14.1069625 37.4190322,13.5072301 37.6523422,12.6978227 L39.6204622,5.47328346 C41.0903922,5.49718025 42.5372222,5.55345333 43.9932922,5.76467012 L45.0866922,13.354599 C45.2122022,14.1886741 45.8104922,14.8732015 46.6174522,15.1060025 C48.8704722,15.7835921 51.0364822,16.7587353 53.0323222,18.0252652 C53.7607422,18.5170765 54.7109222,18.5170765 55.4378022,18.0252652 L61.4876922,13.7199886 C62.6311422,14.6889649 63.6906622,15.7504449 64.6947422,16.8581768 L60.7592722,23.2802464 C60.3011222,23.9917541 60.3011222,24.9052281 60.7592722,25.6159649 C62.0297722,27.5500632 63.0869822,29.6583768 63.8207922,31.9648025 C64.0664222,32.7973358 64.7848322,33.4001516 65.6433822,33.4972805 L73.0061222,34.0808247 C73.2540622,35.5701343 73.4642722,37.0571314 73.5158622,38.5325654 L66.2994222,40.941516 C65.4978522,41.2105477 64.9288222,41.923597 64.8410422,42.7653807 C64.5661522,45.1303921 63.9116522,47.463798 63.0192222,49.6253012 C62.7050622,50.4370212 62.9052622,51.358204 63.5289622,51.9602489 L70.0169822,58.4555506 C70.8647522,59.3042721 72.2338122,59.3042721 73.0792722,58.4555506 C73.9270422,57.6091417 73.9270422,56.2385452 73.0792722,55.3898237 L67.3928222,49.7709946 C67.9811022,48.1190326 68.4138422,46.4069432 68.7049022,44.6624775 L76.4318522,42.1086044 C77.3119622,41.8434272 77.9241122,41.0548331 77.9626122,40.1375047 C77.9872522,37.360081 77.6892622,34.487841 77.0878922,31.6726449 C76.8869222,30.7614835 76.1215422,30.083123 75.1921522,29.9944736 L67.2434422,29.2636943 C66.6212822,27.6101906 65.8589822,26.0754 64.9834922,24.5930281 L69.2847122,17.5874143 C69.7675022,16.8134667 69.7082122,15.8198227 69.1391822,15.1060025 C67.3242922,12.9074978 65.2206522,10.9849625 63.0161422,9.2682479 C62.2730922,8.68778716 61.2389822,8.65772346 60.4651322,9.19655753 L53.9039622,13.7932207 C52.4163222,12.951437 50.8609222,12.1875106 49.2385322,11.6039664 L48.0719822,3.50372543 C47.9441622,2.58100099 47.2380722,1.84482568 46.3225422,1.67908988 C43.6075222,1.17494469 40.7462022,0.917476049 37.8679422,1.02231358 C37.7947922,1.0176884 37.7224122,1.0176884 37.6492622,1.02077185 L37.6492622,1.02077185 Z" id="Shape"></path>
                    <path d="M41.3660522,25.979042 C39.5165122,25.7192607 37.5930522,25.7593457 35.6811422,26.2711995 C28.0327322,28.3240109 23.4989722,36.2762459 25.5487122,43.9316983 C27.5976822,51.5902341 35.4686222,56.2015437 43.1154922,54.1487323 C44.2774222,53.9028267 45.0220122,52.7619477 44.7779222,51.5987136 C44.5322922,50.4331669 43.3880722,49.6900538 42.2269122,49.9344178 C42.1583822,49.9506059 42.0898522,49.9683358 42.0213222,49.9891491 C36.6251622,51.4368321 31.1489222,48.2392874 29.7036322,42.8370711 C28.2568022,37.4371674 31.4499922,31.8792365 36.8469222,30.4307827 C42.2446222,28.9838706 47.7208622,32.1814153 49.1653822,37.5828607 C49.8668522,40.1960904 49.4887822,42.8231956 48.2906622,45.0263254 C47.7070022,46.0754716 48.0827622,47.3982746 49.1284222,47.9825896 C50.1763922,48.5661338 51.4977122,48.1914938 52.0813722,47.1431185 C53.7876922,44.0118681 54.3128322,40.1930069 53.3203022,36.4882336 C51.7856922,30.7460662 46.9192922,26.7614691 41.3660522,25.979042 L41.3660522,25.979042 Z" id="Shape"></path>
                </g>
            </g>
        </g>
    </g>
</svg>